<svg version="1.1" id="Layer_1" xmlns="http://www.w3.org/2000/svg" x="0" y="0" viewBox="0 0 800 1200" style="enable-background:new 0 0 800 1200" xml:space="preserve"><circle cx="173" cy="176.1" r="64" class="wht"></circle><path d="M134.8 164.4h8.5c6.1 0 8.8 2.2 8.8 6.7 0 2.1-.8 3.6-2 4.5 1.7 1 2.6 2.6 2.6 4.9 0 5.1-3.5 7.3-9.5 7.3h-8.4v-23.4zm6.4 5.8v2.9h2.6c1.2 0 1.8-.6 1.8-1.5s-.6-1.4-1.8-1.4h-2.6zm0 8.7v3.1h2.2c1.8 0 2.4-.6 2.4-1.7s-.6-1.4-2.2-1.4h-2.4zM160.9 164.4h6.3l7.7 23.4h-6.7l-.9-2.8h-6.7l-.9 2.8H153l7.9-23.4zm3.1 9.9-1.5 4.8h3l-1.5-4.8zM176.8 177l-7.1-12.6h7.2l3.3 6 3.3-6h7.1l-7 12.5v10.8h-6.7V177zM188.2 176.1c0-6.6 4.9-12 11.9-12 4.6 0 8.4 2.3 10.5 5.7l-5.9 3.7c-.8-1.7-2.5-2.8-4.6-2.8-3 0-5 2.5-5 5.4 0 2.9 1.9 5.4 5 5.4 2.3 0 4-1.3 4.7-3.3l6.2 3.3c-1.9 3.8-5.6 6.5-10.9 6.5-7.1.1-11.9-5.2-11.9-11.9z" class="blck"></path></svg>