<svg xmlns="http://www.w3.org/2000/svg" viewBox="0 0 800 1200" style="enable-background:new 0 0 800 1200" xml:space="preserve">
    <style>
        .st3{fill:#131112}.st5{fill:#33bbc7}.st12{fill:#d1495e}.st14{fill:#5f4a48}.st15{fill:#9fb65f}.st16{fill:#7c9552}
    </style>
    <g id="Layer_6">
        <path style="fill:#9780e8" d="M0 0h800v1200H0z"/>
        <path style="fill:#ffff80" d="M45 48.1h707.5v1104.4H45z"/>
        <g id="layer1" transform="translate(188.644 -115.486)">
            <g id="g10" transform="matrix(.41605 0 0 -.41187 -342.593 291.234)">
                <g id="g12" transform="scale(.1)">
                    <path id="path32" class="st3" d="M13300.8-9890.2v-462.8h928.7v-459.8h-928.7v-721.5h-595.1v2104h1650.1v-460.1h-1055"/>
                    <path id="path34" class="st3" d="M15218.3-9902.3h-646.2v472.1h1884.5v-472.1h-643.2v-1632h-595.1v1632"/>
                    <path id="path36" class="st3" d="m18037.4-11534.2-435.8 652.4-429.8-652.4h-679.3l766.4 1064-733.4 1040h670.2l420.8-607.3 414.7 607.3h643.2l-733.4-1016 781.5-1088.1h-685.1"/>
                    <path id="path38" d="M9011.1-11989.8H9909v897.6h-897.9v-897.6" style="fill:#84d6d7"/>
                    <path id="path40" class="st5" d="M10705.6-9851.5H9011.1v-897.9h2002.7v897.6h-308.2v.3"/>
                    <path id="path42" d="M9011.1-8611.6v-897.6h2781.4v897.6H9011.1" style="fill:#11a9bc"/>
                    <path id="path44" class="st5" d="M7906.5-10749.3h897.6v897.9h-897.6v-897.9"/>
                </g>
            </g>
        </g>
        <path d="M554.4 487.1c-.3-7.2-.9-14.5-1.8-21.6-.8-6.6-1.4-13.9-3.8-20.1-3.9-10.3-7.7-20.2-13.5-29.6-7-11.4-20.3-17.8-27.1-28.2-7-10.8-128-209.1-141.9-221.2-1.1-1-3.4-2.3-4.9-1.7-2.2.9-1.1 1.9-.5 3.7.3 1.1-.3 2.2-1.2 2.9s-1.9 1-2.9 1.6c-3.2 1.8-4.8 6.1-3.8 9.6-.6 2.1-.8 4.4-1.5 6.4-1.3 3.6-4.1 6.5-6.2 9.6s-3.7 7.6-2.3 11.2c-1 5.5-1.4 11.7 1.1 16.9.3.7.7 1.3 1 1.9.1.5.3 1.1.6 1.6.5 1.1.6 2.4.5 3.7-.2 2.1-.6 4.2-.8 6.2-.1.6-.3 1.3-.4 1.9-.6 4.3-1.3 8.5-1.5 12.9-.1 2.2.1 4.4.6 6.6-1.1 5.9.2 12.5 4.9 16.5 2.1 1.8 4.4 3.4 5.9 5.9 1.6 2.6 2 6 2.6 8.9.5 2.5 1.1 5 2 7.3.9 2.4-21.4 27.2-25.1 26.8-6.7-.6-59.2 20.4-64.2 23.9-.6.4-1.2.9-1.7 1.4-12 9.7-16.8 26.4-21.8 41.4-3.1 9.2-8 19.4-16.9 22.5-1 0-2-.1-3-.2-1.7 4.7 16.6 6.3 24.4 1.7 3.6-2.1 7.2-5.5 11.4-5.6 4.8 0 11.4 5.6 16.2 5.9 4.1 1.1 8.4 1.1 12.6.9 5.1-.2 10.2-.7 15.3-1.4 8.6-.8 11 .1 14.9-2.7 4.6-1 9.3-1.9 14-2.1 12.8-.8 26.3 3.7 39 2.7-3.9.8-51.2 26.9-54.9 28.2-6.1 2.2-10.8 6.9-13 14.4-.4 1-.7 1.9-1 2.9-1.3 4.5-2 9.3-4.5 13.3-1.9 2.9-4.7 5.5-4.9 9-.1 2.7 1.5 5.3 1.5 8 .1 3.6-2.5 6.7-3.5 10.2-1.6 5.4.7 11.1 1.9 16.6 1.5 7.4.9 15.2-1.7 22.2 3.2-.8 6.4-1.4 9.3-2.7-.1.1-.2.1-.3.2 7.9 1 15.9-2.3 22.5-6.3 3-1.8 5.8-4.6 9-6 5.2-2.2 10.2-1.4 14.5-5.7 2.3-2.4 4.4-5.2 7.4-6.5 1.3-.6 2.8-.8 4-1.4 2.4-1.1 4.9-5.1 5-6.5.9-1 1.7-2.1 2.4-3.4 1.3-2.5 2.5-4.5 5.2-5.7 4.9-2.1 5.5-5.6 8.3-9.8.5-.8 1.2-1.6 1.9-2.2 3.6-.6 5.1-2.5 7.8-5.8.4-.3.9-.6 1.3-.9 3-2.2 5.6-5 7.6-8.1 2.5-1.6 4.2-4.3 5.8-6.8-.5 2-.7 3.8-.9 5.9-.1 2 .2 4.1 1.3 5.9l.1-.1c1.4 2 4.4 2.6 5.2 4.8.2.5.2 1.1.4 1.6.4.9 1.3 1.4 2.3 1.6 3.8.7 5.9.1 7 3.7-.5 3-1.2 6-2.2 8.9-.1.1-.2.2-.4.3 2 1.9 5.2 2.1 7.9 1.5 2.2-.5 4.2-1.4 6.4-2 1.6-.3 3.4-.6 3.4-.6v-.1c3.1-.3 6.3.2 9.3 1 1.8 1.4 3.6 1.5 5.1 1.5 2 .6 3.9 1.3 5.5 2.6 1.5 1.3 2.5 3.1 3.9 4.6 2.7 3 6.5 4.5 10.4 5.6 2 .5 3.9 1.7 5.7 2.7 1.7 1 3.7 1.7 5.5 1.4.3-.1.5-.5.3-.8-.9-1.2-.8-3.2 0-4.6.9-1.6 2.5-2.6 3.8-3.9 8.8-8.8 1.5-23.3.8-33.2-1-13.8 18-61.1 16.5-71.4.1 0 .3.1.4.2 2.1 1 3.9 4.5 5.8 5.8 4.2 2.9 8 6.2 10.9 10.4 6.4 9.3 10.9 18.8 15 29.2 1.2 3.1 2 6.2 2.6 9.3.5 2.3 1.1 4.5 1.7 6.7-.1 10.6.6 21.2 0 31.9-1 17.7-.8 35-3.7 52.6-1.4 8.3-4.2 16.4-6 24.5-1 4.7-.9 9.7-2 14.4-1.7 7.7-5.1 14.9-8.3 22.1-2.4 5.4-4.5 10.7-6.4 16.3-1.7 5.2-3.9 10.3-6.4 15.2-3.6 6.8-7.8 12.9-10.7 20.1-2.3 5.6-6 10.9-9.1 16.2-3.3 5.7-6.6 11.3-10 17-1.9 3.2-3.7 6.3-5.4 9.6-.8 1.6-1 3.1-1.6 4.7-.8 2.3-2.2 4.6-3.3 6.8-11.8 24.1-20.9 49.5-32.5 73.7-6.5 13.5-11.3 27.5-16.2 41.6-1.9 5.6-9 22-9.5 22.9-.4.7-109.3-232.1-117.4-241.6 1.9-3.5 13.2-21.9-.4-7.7-15.3 24.1-4.8 128.2-4.8 128.2s16.4 83.3 37.8 117.9c28 45.2 67.3 121.2 78.8 132.6-.1-.2-.2-.4-.4-.6 1.7 2.3 3.6 4.4 5.9 5.9.1 4.5.1 8.9-.1 13.4-.6 16.4-.9 32.8.5 49.2.3 3.5.9 7.5 3.7 9.4 2.9 2 7.2 1.3 9.5 3.9.6.7 1 1.5 1.6 2.2.6.7 1.5 1.2 2.3 1.1.7-.1 1.3-.7 1.7-1.3 2.3-3.2 3-7.2 2.9-11.1-.1-3.9-1-7.7-1.7-11.6-.8-5.1-1.2-10.2-1.3-15.3-.2-6.3-2.3-12.3-1.3-18.6 1-6.4.3-13.6.2-20.2 4.2-1.9 16.7-99.3.4-118.9 1.1-7.6 46.8-129.9 51.8-141.3 2.6-6 69.6-156.7 70-159.8 1.7-12 3.1-24.1 4.3-36.2 1.7-14.4 2.2-28.7 1.6-43z" style="opacity:.25;fill:#231f20"/>
        <path d="M306.9 578.9c6.3-18.5 2.6 59.4 15 82.7 9.8 18.5 26.1 32.9 36 51.3 7.6 14 10 33.7 20.3 45.8 12.6 14.7 26.3 24.7 35.1 42.8 4.9 10.1 9.2 21.8 19.3 26.6 29.6 14.2 28.8 59.3 29.2 92.1.1 9.7-.9 19.9-6.1 28.1-5.3 8.2-16 13.5-25 9.9-7.2-2.9-11.2-10.5-14.9-17.3C366.9 852.6 329.6 775 305.4 681c-7.8-29.7-14.9-76.3 1.5-102.1z" style="fill:#62834c"/>
        <path d="M366.7 841.4c1.8 6 4.1 13.1 9.4 14.5 9.5 2.6 15.2 10.2 20.5 16.2 6.7 7.7 9.5 16.1 9.8 26.3.5 15.6 3.7 13.5 7.3 22.4 3.4 8.3-5.1 7.7 8.1 30.2-11.5-11.4-50.8-87.4-78.8-132.6-21.4-34.6-28.9-78.2-37.8-117.9-8.6-38.3-27.3-98.2 4.8-128.2 1.8 2.7 1.8 5.1.2 7.9-1 1.9-2.3 3.8-2.4 6 0 1.3.3 2.5.3 3.8 0 2.3-1.8 3-3.3 4.2-2.1 1.7-2.5 3.1-3.2 5.8-1.5 5.4-2.3 11-2.4 16.6-.2 10.5 1.9 21.7 6.6 31.2 5 10.2 7.7 22.6 8.2 33.9.2 5.5-1 10.8-1.3 16.2-.4 8.9 3.5 19.3 9.4 26 5.4 6.1 11.9 11.2 16.6 17.8 4 5.7 6.5 12.4 9.8 18.5 3.3 6.1 8.3 10.5 12.3 16.2 7.4 10.6 8.7 25.4 7 38-1.3 9.4-4 17.5-1.1 27z" style="fill:#b5c8ac"/>
        <path d="M366.7 841.4c1.8 6 4.1 13.1 9.4 14.5 9.5 2.6 15.2 10.2 20.5 16.2 6.7 7.7 9.5 16.1 9.8 26.3.5 15.6 3.7 13.5 7.3 22.4 3.4 8.3-5.1 7.7 8.1 30.2-11.5-11.4-50.8-87.4-78.8-132.6-21.4-34.6-28.9-78.2-37.8-117.9-8.6-38.3-27.3-98.2 4.8-128.2 13.8-14.6 1.8 5.1.2 7.9-1 1.9-2.3 3.8-2.4 6 0 1.3.3 2.5.3 3.8 0 2.3-1.8 3-3.3 4.2-2.1 1.7-2.5 3.1-3.2 5.8-1.5 5.4-2.3 11-2.4 16.6-.2 10.5 1.9 21.7 6.6 31.2 5 10.2 7.7 22.6 8.2 33.9.2 5.5-1 10.8-1.3 16.2-.4 8.9 3.5 19.3 9.4 26 5.4 6.1 11.9 11.2 16.6 17.8 4 5.7 6.5 12.4 9.8 18.5 3.3 6.1 8.3 10.5 12.3 16.2 7.4 10.6 8.7 25.4 7 38-1.3 9.4-4 17.5-1.1 27z" style="fill:#aecea2"/>
        <path d="M246 387.6c10.4-1.9 15.9-13.1 19.3-23.2 5.5-16.4 10.7-34.9 25.4-44 7.4-4.6 16.4-6 24.1-10.2 6.3-3.4 11.7-8.5 18.4-11 6.3-2.3 13.2-2.1 19.8-1.5 8 .7 16 2.7 23.9 3.3 8.2.6 16 2 23.5 5.5-4.4-4.8-5-12-8.8-17.4-2.1-3.1-5-4.9-7.6-7.4-2.8-2.7-4.2-7.3-5.1-10.9-2-8-2.8-16.4-6.5-23.9-1.9-3.9-5-6-7.4-9.3-2.5-3.4-3.3-7.9-3.1-12 .2-4.3.9-8.6 1.5-12.9.5-3.6 2.1-7.5 1.1-11.1-.4-1.5-1.3-2.8-2-4.2-2.6-5.2-2.1-11.3-1.1-16.9-1.4-3.6.1-8 2.3-11.2s5-6 6.2-9.6c1.1-3.2 1-6.8 2.8-9.6 2.9-4.3 9-4.7 14.3-4.5 6 .2 12.8 1 16.6 5.7 1.2 1.5 2.2 3.5 4 4.3 1.2.5 2.5.4 3.7.8 3.2.9 5.1 4.3 6.1 7.5s3.3 8.7 5.5 11.3c1.9 2.2 5.2.3 7.7 1.7 9.1 5.2 13.2 15.9 14.5 26.3 4.1-5.1 8.6-10.5 11-16.6 1.3-3.4 2.1-7 3.7-10.2 2.2-4.3 5.7-7.6 9.3-10.9 7.7-7.1 15.8-14.4 25.9-16.8 5.5 5.1 8.2 12.6 9.6 19.9 1.4 7.4 1.6 14.9 3 22.3 1.7 8.3 5 16.8 2.9 25.1-1.6 6.1-6 11.2-7.7 17.3-1.6 5.8-.7 12.1 1.6 17.7 2.2 5.6 5.6 10.7 9 15.7-.5 6.5 5.1 10.3 7.3 15.7 2.2 5.5.5 12.6 2.7 18.5 1.7 4.6 5 8.5 6 13.3 1.6 7.5-.6 15.3-2.7 22.7 0 .1-.3.2-.4.3-.5.5 0 4.9-.1 5.8-.2 2.1-.5 4.3-1 6.4-.9 3.8-2 7.4-3.3 11.2-1.2 3.4-.4 10.4-.1 10.9 1 1.6-11.4 32.8-13.5 35.4-.4.5-2.4 1.9-2.5 2.3-.4 1.2.5 1.8.8 3.1.2.8 0 1.6-.5 2.2-.7.6-1.7.6-2.6.8-2.3.6-1.5 6.4-1.2 8.2.9 6.5 5.6 12.8 3.7 19.1-3.5 11-4.8 23.5-6.9 34.8-.2 1.2-.6 2.6-1.6 3.3-1 .7-2.4.5-3.7.2-5.3-1.1-11-2.5-14.6-6.6-1.3-1.5-2.3-3.3-3.9-4.6-1.7-1.4-3.8-2.1-5.9-2.7-5.1-1.6-10.5-3.1-15.7-2.1-2.8.6-5.3 1.8-8.1 2.4-2.7.6-5.9.4-7.9-1.5 2.4-1.8 3.6-5.1 2.9-8-1.1-5-3.2-4.2-7.4-4.9-1-.2-1.9-.7-2.3-1.6-.2-.5-.2-1.1-.4-1.6-.9-2.4-4.3-3-5.5-5.3-1.3-2.6-.3-6.4.4-9.1.2-.7-.2-1.7 0-2.4-4.2-.3-4.2 3.7-6.3 6.8-2.1 3.2-4.8 6.1-7.9 8.4-3.8 2.8-8.3 5-11 8.9-2.8 4.2-3.4 7.7-8.3 9.8-2.7 1.1-3.9 3.2-5.2 5.7-1.4 2.8-3.4 4.7-5.9 6.6-5.2 4.1-11.2 7.1-16.6 11-7.7 5.5-19.1 8.4-28.1 11-4.1 1.1-8 3.5-11.6 5.8-3.5 2.3-7.5 2.9-11.6 4 2.6-7 3.2-14.8 1.7-22.2-1.2-5.5-3.5-11.2-1.9-16.6 1-3.5 3.6-6.6 3.5-10.2-.1-2.7-1.7-5.3-1.5-8 .2-3.5 3-6.1 4.9-9 2.5-4 3.2-8.8 4.5-13.3 1.3-4.5 3.7-9.2 8-11.1 5.8-2.6 12.1-3.8 16.9-8 4.8-4.2 9-10.6 14.4-13.9 2.9-1.8 6.7-2.6 9.8-4.2 2.9-1.5 5.8-3.1 8.7-4.7 5.6-3.1 13.2-3.9 19.5-5.2-14.9 4.9-31.7-2-47.4-1.1-7.3.4-14.4 2.3-21.6 3.7-7.4 1.4-15 2.3-22.6 2.6-4.8.2-9.7.1-14.3-1.4-4.5-1.5-8.4-4.4-13-5.4-6.3-1.4-12.7 1-18.8 3.1-5.8 2-11.7 3.9-17.7 1.6z" style="fill:#f9f2f4"/>
        <path class="st12" d="M464 358.9c2.5-2.7 7.3-3.4 11-3.5 10.9-.3 21.5 2.2 30.9 7.7-11.1-9.4-19.6-19-31.6-24.8 4.4-.3 8.9.9 12.4 3.6-6.4-5.1-13.2-8.7-21-13.4-5.3-3.2-14.7-1.7-18.7 2.1 7.1 8 9.2 21.3 17 28.3zM436.3 301.8c4.4-2.1 9.6-1.8 14.2-.2s8.7 4.4 12.7 7.2c-1.6-3.2-3.7-6.1-6.1-8.7 5.8 2.2 11.4 5.4 16.2 9.4-2.5-4.3-6.7-7.1-10.5-9.9-3.2-2.4-5.7-5.5-8.6-8.2-3.1-2.9-6.5-3.5-10.7-3.8-2.3-.1-4.9-.2-6.8 1-.3.2-.5.6-.5 1 .2 4.3.5 8 .1 12.2zM507.6 292.3c-1.4-3.3-1.2-8.7-2.6-12-2.7-6.3-3.1-8.1-8.2-13.3-2.2-2.3-4.9-3.9-7.9-4.9-1.8-.6-3.4-1.3-5.2-2-2-.8-4-1.8-5.8-3-2.5-1.7-6.5-3.9-10.4-4.8-5.3-1.2-15.7-1.6-21.2-1.6-1.8 0-3.6.2-5.4.3-1.8-.1-3.5-.1-5.3-.1l.2.1c-1.4-.1-2.8-.3-4.1.2-.7.3-1.4.9-1.5 1.7-.1 1.3 2.4 2.3 3.2 3.1 1.2 1.3 2.3 2.8 2.9 4.4 1.5 3.5-.7 6.9 1 12 3.1 0 5.1.4 7.9 1.8s5.7 3.4 8.2 5.2c1-3.6-8.9-8.7-10.1-10.8.1.2 5.9 2.4 7 3.1 2.5 1.6 4.9 3.3 7.1 5.4-2.3-2.9-4.1-5.7-6.4-8.6 9.6 6.3 17.6 15.1 22.9 25.2 1.2 2.3 2.8 4.7 5.3 5.3 2-3.8 2.3-8.3 1.3-12.5-1.5-6.6-5.5-12.2-9.3-17.6 2.1.9 4 2 5.8 3.4.7-1.9-9.9-14.5-6.2-11.2l14.4 15.3c-1.1-6.7-4.8-12.3-10.1-16.4 5.3.9 11 5.1 14.2 9.2 2.9 3.8 6.9 12.3 6.4 17.2.5-4.4.2-8.9-1.3-13 3.8 4.6 4.7 10.7 6.6 16.4 1.8 5.5 8.6 9.9 16.3 18.4-2-3.9-8.7-13.4-9.7-15.9zM522.1 368.3c0 1.3.8 5.1.8 6.4.1 2.9-.3 5.8-1 8.6-.6 2.8-1.8 5.6-2.2 8.4-.2 1.1-.1 2.2-.5 3.3-1.2 3.4-2.8 6.8-5.4 9.4-1.2 1.2-2.6 2.2-4 3-1.4.8-2.9 1.2-4.1 2.2-5.1-.4-9.8-4-11.4-8.8 1 1.9 3.3 2.9 5.4 2.5-4.8-4.1-7.7-10-8.9-16.2 3 5.2 7.9 9.1 13.4 11.7-1.3-2.2-3.4-3.8-5.2-5.7-1.8-1.8-3.1-4.3-3-6.8 1.1 1.8 2.3 3.5 3.7 5 1.4 1.5 3.4 2.8 5.5 3.3-2.4-1.6-3.9-3.8-5.2-6.3-1.4-2.6 1.7-.4 2.7 0 1.1.4 2.2.7 3.4.8 1.2.1 2.3.1 3.5-.1.8-.1 2.3-1 3-.9-2.7-.5-10.2.8-6.7-.9 2.6-.9 3.9-1.3 6.3-2.4 2.3-1 8.2-7 5.4-4.9-5 2.6-11.6 2.2-7.4.5 4.9-2.7 6.5-5.1 9.6-9.7 1-2.2 1.4-2.7 2.3-2.4zM486.2 385.7c-2.5 2.9-4.3 6.5-5.1 10.2-.7-3.2.9-7.1 2-9.5.6-1.9-8 7.1-8.6 12.2-.7-3.7.2-8.2 2.5-11.2-9.8 4.1-9.8 17.4-9.6 26.5-3.1-5.2-4.9-11.4-4.2-17.5-3.4 2.6-4.4 12.9-4.5 20.7-2.1-4.1-2.6-9.1-2.6-13.6 0-1.9.2-3.8.3-5.8.1-1.8.5-3.5 1.4-5.1.9-1.7 2.1-2.6 3.8-3.6 2-1.1 3.7-1.2 6-1.2 1.6-.1 3.2-.4 4.7-.9 2.1-.8 4-1.2 6.3-1.3 2.4 0 5-.1 7.6.1zM451.8 398.2c-5.5 3.8-10.1 9-13.2 15-1.3 2.5-2.3 5.2-3.7 7.7-1.5 2.8-3.7 4.8-5.9 7.1-.5.5-1 1-1.6 1.4-.7.3-1.5.4-2.2.4-2.5.1-4.9.6-7.5.7-2.6.1-5.3.4-7.8 1.4-1.7.7-3.7 1.6-5.1 2.8-1.4 1.2-2.5 2.6-4 3.7-1.2.9-1.6 2-2.6 3 .4 1.6 1.9 2.4 3.5 2.9 3.2 1 6.7 1.1 10 .3-2.9-.2-6.5-1.1-8.2-3.4 5-.7 10 1.5 14.6-.5 3.1-1.4 5.1-4.5 6.9-7.4-.5 2-.7 3.8-.9 5.9-.1 2 .2 4.1 1.3 5.9 5-5.3 10.1-11.3 11.6-18.4.7-3.5.5-7.4 2.2-10.6 3.2-6.5 7-13.3 12.6-17.9zM438.2 433.4c3.7 10.4 3.7 22.2-.2 32.6 1.8.7 4.1-.5 5.1-2.1s1.2-3.6 1.2-5.5c.1-8.9-2.6-16.8-6.1-25zM451.7 438.7c3.7 3.8 7.4 7.6 10 12.2 2.6 4.6 4.1 9.6 2.9 14.7 1.9 1.6 3.7 1.6 5.3 1.6-.4-5.2-2.2-11.9-4.8-16.5-3.1-5.4-7.6-9.9-10.7-15.3-3.6-6.3-4.8-10.7-5.7-19.2-.9-6.8-1.3 23.8 2.5 36 .7 2.2 1.6 4.4 1.5 6.6-.1 1.8-1.1 3.1-2.3 6.9 1.6-.2 5.1-.9 5.1-.9 0-1.4-.6-3.3 0-4.6 1.2-2.9.5-5.7-.3-8.6-1-4.2-2.8-8.6-3.5-12.9zM471 425.8c1.2 5.8 3.9 11.2 6.9 16.3 3.3 5.7 6.8 11.2 8.9 17.5 2.2 6.5 3.2 13 2.4 19.8 0 .3.1.5.4.5 2 .5 3.9 1.7 5.7 2.7 1.7 1 3.7 1.7 5.5 1.4.3-.1.5-.5.3-.8-.9-1.2-.8-3.2 0-4.6.9-1.6 2.5-2.6 3.8-3.9 3.3-3.2 3.6-8.1 3.7-12.7.5-18.7-1.6-23.3-3.8-30-.9 2.6.8 2.8.1 4.4-2.9-2.2-6.9-4.7-10.4-5.9 1.6 1.3 2.8 2.9 3.8 4.7-3.6.4-7.4-1-10-3.5-.3-.3-.8 0-.6.4 1.7 3.5 5.4 7.6 8 11.1-6.1-3.7-11.3-6.8-15.6-12.8 1.7 7.7 8 14.4 14 21.1 1.4 1.1 2.2 1.9.5 1.2-6-2.1-10.4-7.2-14.1-12.3-4.2-5.9-7.7-12.2-10.5-18.9.2 2 .7 2.6 1 4.3zM392.8 448.7c1.8 1.8 4.4 2.9 6.9 3 2.6.1 8.5-1 10.5-2.7-3.5 4.4-5.1 6.3-12.2 6-2-.1-3.9-.2-5.9-.4-.8-.1-1.3-.9-1.1-1.6.3-1.5 1.1-3.1 1.8-4.3z"/>
        <path class="st12" d="M511 262c-1.7 5.4-2.6 11-2.6 16.6 0 2.9.2 5.7.6 8.5.2 1.5-.5 4.3 2 6-.8-2.3-.7-4.9-.7-6 0-.7.1-1.6.8-1.8 2.1-.4 2.7-.1 2.9 2.1.3 3.5.5 7 .8 10.5 1.1-.5 1.6-1.8 1.8-3 .8-4.3 1.3-8.6 1.6-13 1.5.6 2.5 2.2 2.8 3.8.3 1.6 0 3.2-.3 4.8-.3 1.6-.7 3.2-.5 4.8.2 2.5-.3 6.3 4 7-2.8-5.1.2-12.3-1.4-17.9-.7-2.5-2.1-4.7-3.6-6.8-5.6-7.5-3.1-13.5-8.2-15.6zM508.2 221.2c-2.6 4.3-7.6 6.8-9.9 11.3-1.9 3.7-.8 8.2-.9 12.4-.1 5.6 1.8 10.1.7 14.2 2.2-2.8.8-4 1.7-5.2.9-1.1 2.4-1.9 3.8-1.5 1.5.4 2.4 2.3 3.1 3.6-2.2-6-4.3-12.8-3.2-19.1 1.1-5.4 4.5-10.3 4.7-15.7zM483.7 256.1c0 .7-.6 1.3-1.2 1.3-.2 0-.3.1-.5.1-.5.2-1 .7-1.4 1.1-2-.5-3.8-1.9-5.5-3.1-2.2-16.2 4.7-32.4 9-47.8 4.6-16.3 9.7-43.3 10.4-49.7 1.7 7.3 1 15.7.1 23.4-.6 4.8-1.9 9.5-3.1 14.2-2.6 9.9-4.9 19.9-6.3 30.1-.7 5-1.3 10.1-1.3 15.2-.2 5.1.2 10.1-.2 15.2zM420.4 171c-1.7 4.3-2.2 9.1-2.6 13.6-.2 2.2.4 4.4.5 6.6 0 1.5-2.2 4.4-.3 6 1.2-3.1 2.3-6.2 3.5-9.3.2 7.4-.8 14.8-2.9 21.9 2.4-1.7 4.4-6.1 5.7-9.5-.3 9.9.5 19.7 2.6 29.4 1.4-10.8 2.3-21.6 3.1-32.5.2-2.1-.5-6.7 1.6-8.1.9-.5 1.9-.9 2.5-1.7 1-1.5.6-5.6 0-7-1-2.5-4-4.5-6.4-5.2-1.2-.4-2.5-.5-3.7-1-1.7-.6-2.1-2.6-3.6-3.2zM395.7 148c-1 .1-1.8.4-1.5 1.4.1.4.3.8.3 1.3 0 .4-.3.7-.6 1-1.8 1.5-1.5 4-1.3 6.2 1 10.6 2 21.1 3.1 31.7-1.7-1.4-2.1-5.4-4.3-11.7-1.1-2.2-3.3-12.3-4-14.7-.7-2.1-1.6-4.1-2.8-5.9-1-1.5-1-.6-.8.7.2 1.2.5 2.3.8 3.5.3 1.2 2.6 4.3 1.1 3.7-1.4-.5-3.2-2.7-4.1-4.5-.9-1.9-2.1-3.8-3.8-5.1-1.7-1.4-4-1.5-6.1-1.5-1.7-3.6 0-8.5 3.4-10.5 1-.6 2-.9 2.9-1.6.9-.7 1.5-1.8 1.2-2.9-.6-1.8-1.7-2.8.5-3.7 1.6-.6 3.8.7 4.9 1.7 1.6 1.4 2.8 3.3 4.3 4.9 2.1 2.1 4.8 3 7.4 4.2.4.2.8.3 1.1.6.3.3.5.7.5 1.1-.2.2-1.2.1-2.2.1zM367.6 172.6c-1.1.1-1.7 1.5-1.5 2.6.3 1.1 1.1 1.9 1.9 2.7 2 1.9 4.2 3.6 5.8 5.8.9 1.2 2 2.3 3.1 3.4.6.5 1.3 1 1.8 1.5.6.6 1.1 1.1 1.2-.1.1-1.2-.9-2.5-1.5-3.5-.9-1.3-2-2.5-3.1-3.7-1.6-1.7-3.2-3.5-3.9-5.8-.4-1.8-1.7-3.1-3.8-2.9zM399.8 155.5c-1.9 2.2-2.2 5.3-2.3 8.2 0 3.9.8 10.7 1.6 10.7.9 0 .2-6.9.3-10.8.1-1.1.1-2.3.7-3.3.6-1.1 1.6-1.6 2-2.8.2-.6.1-1.4-.3-1.9-.3-.4-1.6-.6-2-.1zM452.2 193.5c-1.8.6-3.2 2.3-3.9 4.1-.7 1.8-.9 3.8-.9 5.7-.3 15.3 5.2 30 10.7 44.2-1.4-6.4-2.1-13-2.8-19.6-.4-3.3-.7-6.5-1.2-9.8-.1-.7-1-2.8-.8-3.5.4-1.1 1.2-.6 1.7.2.6.9 2.2 3.8 2 4.9 1.4-8.3-1.5-18.4-4.8-26.2zM464.7 169.9c1.4-1.4 3.2-3.7 5.4-5.2.1 0 .1 0 .2.1 3.6 8.1 5.5 18.3 3.4 26.9-.9-2.4-1.5-5.1-2-7.6.4 7.6.9 21.1-1.7 22.8 0-9.4-2.6-12.8-3.4-23.1-.2-2.1-2.4-6.8-2.2-9 .1-1 .6-1.9.6-2.8 0-.3-.5-1.9-.3-2.1zM494.4 147.1c-.1 6.4 7.2 11 7.5 17.5.2 2.9-1.1 5.9-.4 8.7.5 1.8 1.7 3.4 2.5 5.1 1.7 3.6 1.6 7.7 1.8 11.7.2 4 2.1 6.7 4.7 12.7-1.7-9.4-2.7-17.2-2.7-25 0-7.8-.6-16-4.3-22.8-2.1-3.8-5.2-7.5-8.3-10.5-.4.9-.8 1.6-.8 2.6zM364.2 198.3c1.8-.2 3.9-.2 5.5.6 1.9 1 3 2.9 4.2 4.7 2.1 2.9 4.9 5.3 7.3 8 2.4 2.7 4.6 5.8 5 9.4-1.7-2.6-3.8-4.9-6.3-6.7-.3-.2-.5-.4-.8-.3-.5.1-.7.6-.6 1.1s.4.8.7 1.2c2.1 2.6 3.5 5.7 4.1 9-4.4-4.8-8.8-9.8-13.2-14.6-.7-.8-1.5-1.6-2.5-1.7-1.4-.2-2.7 1.1-3.6 2.1.2-2.1.7-4.2.8-6.3.1-1.2 0-2.6-.5-3.7-.6-1.3-1.1-2.7-.1-2.8zM410.4 261c2.6 5.9 6 11.6 9.8 16.9-1.7-6.6-2.6-13.4-3.5-20.2 2.4 6.9 5.7 13.5 9 20 .5-3.8.2-7.9-1.1-11.6.5 1.5 2 3 2.7 4.4.4.8 1 1.5 1.2 2.4.2.9 0 1.8.2 2.7.4 1.6 1.7 1.3 2.6 2.4.8 1-.1 2.7-.1 3.8 0 1.9 1.5 2.1 2.3 3.6.6 1.2.5 2.4.5 3.6 0 .9.2 1.8.2 2.7 0 .9 0 1.8-.1 2.8-.1.7-.2 1.1-.5.2-.6-2.1-.8-3-1.8-4.2-.1 3.1-.6 6-1.4 9-1.1-2.6-.5-3.5-1.4-5-2.5 2 3.1 14.4 1.7 14.7-9.5-13.8-16.5-29.4-20.5-45.7-.2-1 .2-1.7.2-2.5zM401.4 286.6c-.7.2-1.5.2-2.2 0-1.8-.4-3.4-1.5-4.8-2.7-.9-.7-1.6-1.6-2.4-2.3-.7-.6-1.5-1.1-2.2-1.6-.6-.4-1.2-.8-1.9-1-1.7-.5-3.6-.1-5.3-.2-.2 0-.5 0-.7-.2-.2-.1-.3-.3-.4-.5-1.1-2.4-2.4-4.7-3.3-7.1-.9-2.4-1.6-4.8-2-7.3-.5-2.9-1-6.4-2.6-8.9-1.5-2.4-3.8-4-5.9-5.9-4.7-4-6-10.6-4.9-16.5 4.3.7 8.4 2.5 11.6 5.4 3.5 3.3 6.2 7.3 9.1 11.1 6.5 8.7 13.9 16.6 20.9 24.8 6.7 7.8 12.1 17.1 16.6 26.4-7.6-7.4-15.7-14.7-23.3-22.1-2.5-2.4-5.3-5-8.7-5.1-.5 0-1.2.2-1.2.7 0 .3.2.5.4.7l7.2 6.3c2.3 2 4.7 3.8 7 5.7-.4 0-.7.2-1 .3zM245.5 386.7c4.4.7 9.1-.1 13-2.3 3-1.6 5.5-4 8.6-5.3 4.7-2 10.2-1.5 15 .4 4.8 1.9 11.5 6.3 15.6 9.3-4.8-.3-11.5-6-16.3-5.9-4.2 0-7.8 3.4-11.4 5.6-7.9 4.5-26.3 2.9-24.5-1.8zM515.3 351.2c-2.2-4.9-5.5-9.1-8.8-13.3-4.5-5.8-9-11.6-13.6-17.3 11.2 10.7 22.9 22.2 26.8 37.1-.8-10.6-5.7-20.9-13.3-28.3 8.8 5.4 12.7 16 16 25.9-.8-2.2-.2-5.4-.8-7.8-1.9-8.2-7.7-14.9-12.4-21.7 6 3.3 9.6 8.7 12.5 14.6.7 1.5 3 6.5 2.7 8.1 3.8-2 0-21-2.2-32 3.4 8.9 7 18 6.7 27.5-.2 8.5-2 13.9-6.5 19.1-8.1 9.5-4.5 4.4-5-.2-.2-4.2-.3-7.7-2.1-11.7zM331.4 500.6c3.1-3.8 6-8 10.3-10.4 5.5-3.2 12.2-2.9 18.5-3.6 9.3-1.1 17.1-4.7 24.5-10.5-.1 1.4-2.7 5.4-5 6.5-1.3.6-2.7.9-4 1.4-3.1 1.3-5.1 4.1-7.4 6.5-4.2 4.4-9.2 3.5-14.5 5.7-3.2 1.3-5.9 4.1-9 6-6.7 4-14.6 7.3-22.5 6.3 3.1-2.7 6.3-4.6 9.1-7.9zM361.7 302.7c8.1 10.1 19 18 31.2 22.3 7.1 2.4-10.9-7-10.1-11.1 8.6 4.6 17.2 9.3 25.8 13.9-2.3-3.1-4.7-6.1-7-9.2 1.8-.6 7 4.5 5.5 2.6-2.4-3-4.8-6-7.2-9.1-3.3-4.1-6.7-8.3-11.1-11.2-5.4-3.4-18.2-1.6-24.5-1.7-3.9 0-7.4-2.5-2.6 3.5zM395.7 304.5c3.7 6.2 9.7 11.7 15.7 15.6-2.2-3.2-4.1-6.5-6.4-9.7 6.7 3.1 12.9 6.8 18.6 11.4-3.5-3.6-7.5-6.7-11.7-9.5-1.7-1.1-4-3.1-6.1-3.6-1.9-.5-2.7.6-4.4-.9-.6-.5-.7-1.2-1.3-1.6-2.2-1.3-.9 0-4.4-1.7zM321.4 307.8c2.8 4.6 7.5 7.8 12.4 9.8 5 2 10.3 3 15.6 3.9-6.6-3.2-13.1-7.2-19.1-11.5-2.6-1.9-5.8-3.1-8.9-2.2zM363.6 312.3c-.6-5.7-5.3-8.3-7.3-13.3.2.5-.8 1.8-.9 2.3-.7 3.9 5.7 8.6 8.2 11zM286.2 324.2c0 .1-.1.2-.1.3-1.1 2.7 2.2 3.6 4 4.7 6.7 3.8 14.3 6.1 22 6.6-4.7-1.6-9.3-4-13.5-6.6 1.9 1.2 5 1.7 7.2 2.3 2.4.7 4.7 1.5 7.1 2.2 5.4 1.6 10.9 2.5 16.5 2.7-6.2-1.9-12.3-5-17.7-8.8 8.4-.3 16.1 4.3 24.2 6.6 18.1 5.2 38.1-.4 56 5.5-3.4-1.1-6.8-2.9-10.2-4.1-3.3-1.2-6.5-1.2-10-1.4-8.1-.6-16.1-1.9-24-3.8-9-2.1-17.9-4.1-25.4-9.8-2.8-2.2-5.4-4.8-8.8-6-8.5-3-18 2.5-24.7 7.2-1 .5-2 1.3-2.6 2.4zM324.8 388.3c-.6-6.2 4.5-12.7 9.8-16 5.3-3.3 22.5-8.4 17.6-5.6-4.3 2.9-8.1 6.7-11.2 10.9 4.3-2.4 8.9-4.4 13.6-6.1 6.5-2.3-6.4 4.2-9.6 6.2-1.4.9-2.9 1.8-3.9 3.1s-1.5 3.2-.8 4.7c-4 2.9-6.4 1.9-15.5 2.8z"/>
        <path d="M273.2 353.3c1.2 2 3.5 3 5.7 3.6 7.4 2.1 15.5 1.4 22.4-2-3.8 1.4-8.2 1-12.2.5-5.2-.6-10.9-.6-15.9-2.1z" style="fill:none"/>
        <path class="st12" d="M330.8 349.5c18.6-3.1 37.8-1.7 55.8 4-2.7 2.1-5.8 2.4-9.1 2.8-7.9.9-15.9 1.7-23.8 2.6 4.9.1 9.8.8 14.7.4 4.7-.3 9.5.1 14.2.9 1.7.3 3.7.4 5.4.8 2.1.5 4.2 1.9 6.3 2.6 5.1 1.8 6.6 2.1 11.9 3 6.5 1.1 13-1.1 18.5-4.7 0-.8-.7-1.3-1.3-1.7-4.1-2.7-8.3-5.3-12.6-7.6-4.3-2.3-8.6-4.6-13.5-4.5-1.5 0-3 .2-4.4-.2-1.2-.4-2.3-1.2-3.4-1.8-2.2-1.3-4.8-1.9-7.4-2-2.5-.2-5.1-.1-7.6.3.5.2 3.1 1.3 3.9 1.5 1.5.3 6 1.2 6 1.8 0 .6-.8.5-1.2.5-10.4-2.3-21.2-3.4-31.9-3.1-3.6.1-7.1.3-10.6 1.1-3.5.7-6.9 1.5-9.9 3.3zM368.8 382.9c2.2-5.3 7.4-8.8 12.9-10.4s11.3-1.4 17-1.2c-4.4 1-8.5 3.4-12.2 6.2 2.3-.8 4.9-.9 7.3-.8-2.6-.2-5 4.3-7.2 5-2.9.9-6.9-.5-10 .1-2.7.5-5.2 2.1-7.8 1.1zM400.8 383.7c6.8 2.6 14.4 6.1 19.6 4.2 3.3-1.2 6.7-1.9 10-2.8-4.3.6-8.7.5-13.1.6-2.3 0-4.6-.3-6.8-.7-1.5-.3-6.2-1.3-9.7-1.3zM275.3 352.5c.9-.1 2.2.3 2.8.5 2.9 1.2 6 1.7 9.1 2.1 4.2.5 10.4 1.2 14.5-.3-6 2.2-12.5 3.5-18.9 2.9-2-.2-4.1-.8-5.9-1.6-.8-.4-2.2-.9-2.6-1.8-.5-1.3.1-1.8 1-1.8zM358.7 404.4c-1 .1-1.9.7-3.4 1.5-2.3 1.3-4.6 2.7-6.7 4.3-3.2 2.4-6.5 2.9-10.2 4.2-6.1 2.2-10.8 6.9-13.1 14.4 4.5 2.1 9.1 2.3 14.1 2 5-.3 9.8-1.4 14.7-2.5-4.1-.4-10.4.7-12.6-1.6 3.4-1.8 7.7-1.1 11.6-1.2 3.9-.1 7-2.1 10.2-4.3 0 .1-9.1 0-12.8 0 2.4-1.4 5.9-2.8 8.7-3 2.7-.2 5.5-.2 8.2-.8 2.7-.6 5.3-2 6.8-4.3-2.2-.2-4.4-.3-6.6-.5 1.1.1 3.8-1.9 5-2.3 2-.6 4.2-.6 6.2-.8 1.4-.1 2.7-.3 4-.7s2.5-1.2 3.3-2.3c-6.8.3-15.9.2-22.7-.1-2.7-.1-2.4-2.1-4.7-2zM317.7 457.2c9.4 1.9 19.5-.1 27.4-5.3.2 1-1.6 2.7-4.1 4.8 0 .2-.8.7-.9 1 .8.1 5.4-2.6 6.8-3.4-1.8 2.1-4.1 3.7-6.6 4.9-2.5 1.2-5.1 2-7.8 2.8-2 .6-4.1 1.3-6.1 1.6-1.7.2-4.1.4-5.6-.4-1.1-.6-1.3-2.3-2.1-3.2-.4-.4-.6-.5-.8-1.2-.1-.1-.2-1.6-.2-1.6zM376.8 477.3c2.3-2 3.3-5.1 3.6-8.1.3-3 0-6.1.3-9.1.4-5.8 2.1-13.9 4.8-19.1 4.5-9.2-5.5 6.6-7.4 10.9-3.6 7.9-4.2 17.2-1.3 25.4zM344.4 468.2c-4.4 3.9-8.8 8-14.3 10.3-5.4 2.3-12 2.6-16.9-.7 10.7-.4 22.2-4 31.2-9.6z"/>
        <path class="st12" d="M314.5 473.5c7.3 2.3 15.9-.6 20.4-6.8-3 2.4-6.8 2.3-10.6 2.8s-7.1 1.3-9.8 4zM451.2 394.8c-7.4 2.2-13.7 6-18.9 9.1.3-1.3.8-2.6 1.5-3.8.7-1.2 2.7-2.3 1.3-3.4-1.5-1.2-6.9-.2-12.6-.1 1.8-1 3.3-2.6 5.1-3.6-2-.8-8.1 3.2-12.5 3.4s-8.7-.1-13.1.5c-4.1.6-8 1.9-12 2.8-4 .9-8.3 1.2-12.1-.3 3.8 2.6 8.4 3.2 13 2.7s9.1-1.9 13.7-2.6c6.1-.8 12.3-.3 18.5.3-6.4 2.6-12.6 6.3-17.7 11 6.5-3.6 23.7-10.9 20.7-8.2-4.8 3.6-9.1 7.7-13.2 12.1 11-5.5 18.5-7.5 20.8-8.9 2.9-1.8 5.4-4.4 8.4-6.1 3.6-1.9 3.2 2.8 9.1-4.9z"/>
        <path class="st14" d="M407.8 370.9c-2 3.3-.5 9.1 4.1 6 1.3-.9 2.2-2.2 3.3-3.4 2.2-2.5 5-4.4 8-5.5 1.2-.4 2.5-.8 3.7-1.4 1.2-.6 2.2-1.5 2.7-2.7 2.1-6.1-7.6-3.3-10-2.4-4.8 1.8-9.1 5.1-11.8 9.4zM428.6 388.4c-.7 2.6.9 6.8 3.9 3.7.7-.7 1.1-1.7 1.6-2.6 1.6-3.1 4-5.7 6.9-7.6 1-.7 2.1-1.2 3-2.1 1.9-1.8 2.2-5.5-1.2-5.1-2.4.3-5 2.2-7 3.6-3.4 2.4-6 5.9-7.2 10.1zM414.8 344.7c-3.8-3.4-5.9-8.2-7.3-13.1-.5-1.7-.8-3.8.6-5 1.6-1.3 4-.1 5.4 1.4 3.6 3.7 5.2 9.1 9.2 12.5 1.8 1.5 9.2 5.9 4.2 7.4-4.1 1.3-9-.4-12.1-3.2zM428.8 312.5c0-1.1 0-2.3.8-3 .8-.7 2.1-.6 2.9 0s1.4 1.5 1.9 2.5c3.9 7.6 4.9 16.6 2.6 24.8-.3 1.2-.9 2.5-2 2.8-1.1.3-2.3-.6-2.8-1.7-.7-1.6-.4-3.5-.9-5.2-.7-2.1-1.3-4.3-1.6-6.5-.8-4.5-.8-9.2-.9-13.7zM442.1 331.1c.5 1.1 1.3 2.3 2.4 2.8 1.2.5 2.9.1 3.1-1.2.1-1.1-.5-1.5-.7-2-2.6-5.1-3.4-11.9-7.3-15.5-.7 4.9.4 11.5 2.5 15.9z"/>
        <path class="st15" d="M439.6 355.9c.5.5 1 .9 1.4 1.4.4.5.7.9 1.3 1.2 1 .7 2.3.9 3.4 1.3 7.5 2 14 6.8 21.4 8.9 2.4.7 4.9 1.1 7.3 1.2 2 .1 1.6 2.7 6 2.4-7.7-5.5-14.4-10.6-20.1-18.3-2.2-3-3.5-7-6.1-9.5-4.1-4-11.8-4.5-15.3.5-3.2 4.3-2.4 7.9.7 10.9z"/>
        <path class="st16" d="M439.4 356c1.7 1.8 4 3.1 6.2 3.7 7.5 2 14 6.8 21.4 8.9 2.4.7 4.9 1.1 7.3 1.2 2 .1 1.6 2.7 6 2.4-.9.1-3.2-2.4-4-3-1.2-.8-2.4-1-3.7-1.5-3-.9-6-2.1-8.3-4.3-2-1.9-3.6-4.5-6.3-5.1-3-.6-6.1 1.8-8.7-.3-5.6-4.7-5.2-13 .4-12.7 3.4.2 5.7 5.6 9.1 6.3-4.4-8.2-4.7-9.1-9.1-10.3-6.1-1.6-13.5 2.3-12.9 9.3.2 2.2 1.2 4 2.6 5.4z"/>
        <path d="M429 347.9c-5 4.3-4.8 18.5 4.3 17.1 2.3-.3 4.2-2 5.3-4s1.3-4.4 1.1-6.7c-.2-2.3-.9-4.5-1.6-6.7 2.9-.6 6-1.4 8.5-3.1 2.4-1.7 4.1-4.9 3.2-7.7-1-3-4.6-4.5-7.7-3.9-3.1.6-5.6 3-7.3 5.6-.8-2-1.1-4.4-3.5-5.2-1.8-.6-3.8-.1-5.2 1.1-4.6 3.9-2.5 11.6 2.9 13.5z" style="fill:#f2db7c"/>
        <path class="st15" d="M553 596.7c1.5-6 2.9-12 4.1-18.1 1-5.1 1.3-10.8 3.1-15.7 3.6-9.1 4-19.8 4.7-29.5.6-7.6 2.5-66.3 1.1-78.5-1.2-10.5-2.5-21.2-7.1-30.7-.9 13.3.5 26.3-.3 39.6-1 17.7-.8 35-3.7 52.6-1.4 8.3-4.2 16.4-6 24.5-1 4.7-.9 9.7-2 14.4-1.7 7.7-5.1 14.9-8.3 22.1-2.4 5.4-4.5 10.7-6.4 16.3-1.7 5.2-3.9 10.3-6.4 15.2-3.6 6.8-7.8 12.9-10.7 20.1-2.3 5.6-6 10.9-9.1 16.2-3.3 5.7-6.6 11.3-10 17-1.9 3.2-3.7 6.3-5.4 9.6-.8 1.6-1 3.1-1.6 4.7-.8 2.3-2.2 4.6-3.3 6.8-11.8 24.1-20.9 49.5-32.5 73.7-6.5 13.5-11.3 27.5-16.2 41.6-1.9 5.6-3.8 11.2-5.8 16.8-.4 1.2-.7 3.1-1.5 4.2-.5.7-1.8 1-2.2 1.9-1.1 2-.1 5.7-.1 7.8.4 12.4.4 24.7-.1 37.1-.5 13-1.3 26.1-1.7 39.1-.7 21.4 2.1 42.8 1.3 64.2-.6 16.4-.9 32.8.5 49.2.3 3.5.9 7.5 3.7 9.4 2.9 2 7.2 1.3 9.5 3.9.6.7 1 1.5 1.6 2.2.6.7 1.5 1.2 2.3 1.1.7-.1 1.3-.7 1.7-1.3 2.3-3.2 3-7.2 2.9-11.1s-1-7.7-1.7-11.6c-.8-5.1-1.2-10.2-1.3-15.3-.2-6.3-2.3-12.3-1.3-18.6 1.1-6.9.1-14.8.1-21.8v-26c0-5.2-1-10.3-1.7-15.4-1.3-9.2-1-18.6-.9-27.9.1-10.1.5-20.2 1.1-30.3.9-13.7 2.8-27.2 6.4-40.4 3.7-13.5 8.7-26.7 14-39.7 1.1-2.7 2.2-5.5 3.3-8.2 5-12.1 9.3-24.4 13.2-36.9 3.8-11.9 11.6-22.6 16.6-34 3.6-8.3 6.4-17.1 11.8-24.3 4.1-5.5 7.3-11.7 10.1-18 3.1-7.1 11-20.8 11-20.9 0-1 2.6-3.6 3.2-4.6 1.1-1.8 2.2-3.6 3.2-5.5 1.8-3.5 2.9-7.4 4.6-11 3.6-6.5 12.5-16.4 12.2-16z"/>
        <path class="st16" d="M572.9 458.1c-.3-7.2-.9-14.5-1.8-21.6-.8-6.6-1.4-13.9-3.8-20.1-3.9-10.3-7.7-20.2-13.5-29.6-7.1-11.4-16.7-21-28.1-28.2-3.3 4.2-7.2 7.5-10.4 11.7 2.3.8 5.2-.8 7.4.3 2.1 1 3.9 4.5 5.8 5.8 4.2 2.9 8 6.2 10.9 10.4 6.4 9.3 10.9 18.8 15 29.2 1.2 3.1 2 6.2 2.6 9.3 3.5 14.7 7.7 24 6.2 50.9-1 18.5 2.3 26.2 1.3 44.7 0 5.3-1.2 16.2-1.8 21.4-.6 5.4-2.7 11-4.1 16.3-1.6 6-3.2 12-3.5 18.2-.2 3.8-.5 6.1-2.3 9.4-4.1 7.5-9.5 14.2-14 21.3-4.3 6.8-6.4 14.8-9.6 22.2-6.8 15.4-15.1 30.1-22.6 45.2-1.2 2.4-2.2 5.9-3.9 7.9 2.6-3.1 3.8-7.1 6.5-10.2 4.1-5.5 7.3-11.7 10.1-18 3.1-7.1 11-20.8 11-20.9 0-1 2.6-3.6 3.2-4.6 1.1-1.8 2.2-3.6 3.2-5.5 1.8-3.5 2.9-7.4 4.6-11 1.8-3.8 4.5-7.3 7.1-10.6 2.2-2.8 4.7-5.1 6.2-8.3 1.7-3.5 2.7-7.6 3.1-11.5.4-4.3 1.9-8.5 3.1-12.6 1.6-5.8 3.4-11.6 4.8-17.5.5-2 .2-3.8.4-5.8.3-3.1.9-6.2 1.4-9.2 1.7-12 3.1-24.1 4.3-36.2 1.3-14.2 1.8-28.5 1.2-42.8z"/>
    </g>
</svg>
