<svg xmlns="http://www.w3.org/2000/svg" viewBox="0 0 800 1200" style="enable-background:new 0 0 800 1200" xml:space="preserve">
    <circle cx="173" cy="176.1" r="64" style="fill:#f9f9f9"/>
    <path d="M179.8 182c-.4 0-2.7.2-7.8.2-4.1 0-6.9-.1-7.9-.2-15.6-.7-27.3-3.4-27.3-6.7 0-3.3 11.7-6 27.3-6.7v10.6c1 .1 4 .2 8 .2 4.9 0 7.3-.2 7.7-.2v-10.6c15.6.7 27.2 3.4 27.2 6.7s-11.6 6-27.2 6.7m0-14.4v-9.5h21.8v-14.5h-59.2v14.5h21.8v9.5c-17.7.8-31 4.3-31 8.5s13.3 7.7 31 8.5v30.5h15.7v-30.5c17.7-.8 30.9-4.3 30.9-8.5-.1-4.2-13.3-7.7-31-8.5" style="fill:#26a17b"/>
</svg>
