<svg version="1.1" id="Layer_1" xmlns="http://www.w3.org/2000/svg" x="0" y="0" viewBox="0 0 800 1200" style="enable-background:new 0 0 800 1200" xml:space="preserve"><circle cx="624.4" cy="176.1" r="64" ><animate attributeName="fill" values="#231f20;#f9f9f9;#231f20;" dur="10s" repeatCount="indefinite" /></circle><path d="M580.3 164.4h6.7l2.9 12.1 3.1-12.1h6.7l3.2 12.2 2.9-12.2h6.6l-6.3 23.4h-6.7l-3.2-12.4-3.2 12.4h-6.7l-6-23.4zM614.4 164.4h13.9v6.1H621v2.4h7.2v6.1H621v2.6h7.2v6.1h-13.9v-23.3zM630.7 164.4h8.5c6.1 0 8.8 2.2 8.8 6.7 0 2.1-.8 3.6-2 4.5 1.7 1 2.6 2.6 2.6 4.9 0 5.1-3.5 7.3-9.5 7.3h-8.4v-23.4zm6.4 5.8v2.9h2.6c1.2 0 1.8-.6 1.8-1.5s-.6-1.4-1.8-1.4h-2.6zm0 8.7v3.1h2.2c1.8 0 2.4-.6 2.4-1.7s-.6-1.4-2.2-1.4h-2.4zM651.2 185.1l5-4.5c1 1 2 1.6 3.2 1.6 1.3 0 2.3-.5 2.3-1.7s-1.4-1.6-3.2-1.6H656v-5.8h2.4c1.8 0 3-.6 3-1.8 0-1-.7-1.7-2.2-1.7-1.2 0-2.4.7-3 1.5l-4.6-4.1c2-1.8 5.1-2.9 7.6-2.9 5.2 0 8.9 2.7 8.9 7 0 1.7-1 3.2-2.5 4.4 1.9 1.1 3 2.8 3 5 0 4.3-3.3 7.5-9 7.5-3.2.1-6.3-.8-8.4-2.9z"><animate attributeName="fill" values="#f9f9f9;#231f20;#f9f9f9;" dur="10s" repeatCount="indefinite" /></path></svg>