<svg version="1.1" id="Layer_1" xmlns="http://www.w3.org/2000/svg" x="0" y="0" viewBox="0 0 800 1200" style="enable-background:new 0 0 800 1200" xml:space="preserve"><circle cx="624.4" cy="1024.5" r="64" class="blck"></circle><path d="M592.5 1012.8h8.5c5.9 0 9 3.8 9 8.3 0 3-1.3 5.8-3.9 7.2l4.4 7.9H603l-3.8-7.7v7.7h-6.7v-23.4zm6.7 6.1v4.6h1.5c1.3 0 2.5-.8 2.5-2.3 0-1.5-1.2-2.3-2.5-2.3h-1.5zM612.3 1027.5v-14.6h6.7v14.7c0 2 .8 3 2.3 3 1.5 0 2.3-1 2.3-3v-14.7h6.7v14.6c0 5.7-3.3 9.1-9.1 9.1-5.6-.1-8.9-3.5-8.9-9.1zM632.7 1024.5c0-6.9 5-12 12.1-12 5 0 8.6 2.4 10.6 5.7l-5.9 3.1c-.7-1.5-2.5-2.5-4.7-2.5-2.9 0-5.4 2.2-5.4 5.7 0 3.7 2.2 5.7 5.5 5.7 2 0 3.4-.8 4.1-2.4h-5.6v-6.1h13v3.5c0 6.1-4.7 11.3-11.3 11.3-7.9 0-12.4-5.5-12.4-12z" class="wht"></path></svg>