<svg version="1.1" id="Layer_1" xmlns="http://www.w3.org/2000/svg" x="0" y="0" viewBox="0 0 800 1200" style="enable-background:new 0 0 800 1200" xml:space="preserve"><circle cx="173" cy="1024.5" r="64"><animate attributeName="fill" values="#f9f9f9;#231f20;#f9f9f9;" dur="10s" repeatCount="indefinite" /></circle><path d="M132.5 1012.5h6.8v17.2h6.9v6.5h-13.7v-23.7zM148.1 1027.3v-14.8h6.8v14.9c0 2 .8 3 2.4 3s2.3-1 2.3-3v-14.9h6.8v14.8c0 5.7-3.3 9.2-9.2 9.2-5.8 0-9.1-3.4-9.1-9.2zM168.9 1012.5h6.9l7 11.1v-11.1h6.7v23.7h-6.4l-7.6-11.9v11.9h-6.7v-23.7zM199.3 1012.5h6.4l7.8 23.7h-6.8l-.9-2.8h-6.7l-.9 2.8h-6.7l7.8-23.7zm3.2 10-1.6 4.9h3l-1.4-4.9z"><animate attributeName="fill" values="#231f20;#f9f9f9;#231f20;" dur="10s" repeatCount="indefinite" /></path></svg>