<svg xmlns="http://www.w3.org/2000/svg" viewBox="0 0 800 1200" style="enable-background:new 0 0 800 1200" xml:space="preserve">
    <circle cx="173" cy="176.1" r="64" style="fill:#231f20"/>
    <path d="M143.3 164.1h7.8c6.8 0 12.3 5.2 12.3 12s-5.4 12-12.3 12h-7.8v-24zm6.8 6.5v11.1h1c3.2 0 5.3-2.5 5.3-5.6 0-3-2.2-5.6-5.3-5.6h-1zm15.7-6.5H180v6.3h-7.4v2.5h7.4v6.3h-7.4v2.6h7.4v6.3h-14.2v-24zm16.8 0h7.8c6.8 0 12.3 5.2 12.3 12s-5.4 12-12.3 12h-7.8v-24zm6.8 6.5v11.1h1c3.2 0 5.3-2.5 5.3-5.6 0-3-2.2-5.6-5.3-5.6h-1z" style="fill:#f9f9f9"/>
</svg>
