<svg version="1.1" id="Layer_1" xmlns="http://www.w3.org/2000/svg" x="0" y="0" viewBox="0 0 800 1200" style="enable-background:new 0 0 800 1200" xml:space="preserve"><circle cx="624.4" cy="176.1" r="64"  class="wht"></circle><path d="M579.2 164.1h6.9l3 12.4 3.2-12.4h6.9l3.3 12.5 3-12.5h6.8l-6.4 24H599l-3.3-12.8-3.3 12.8h-6.9l-6.3-24zM614.2 164.1h14.2v6.3H621v2.5h7.4v6.3H621v2.6h7.4v6.3h-14.2v-24zM636.6 170.5H631v-6.3h17.7v6.3h-5.5v17.7h-6.6v-17.7zM662.8 179.5H658v8.6h-6.9v-24h6.9v8.4h4.8v-8.4h6.9v24h-6.9v-8.6z" class="blck"></path></svg>