<svg version="1.1" id="Layer_1" xmlns="http://www.w3.org/2000/svg" x="0" y="0" viewBox="0 0 800 1200" style="enable-background:new 0 0 800 1200" xml:space="preserve"><circle cx="173" cy="176.1" r="64"><animate attributeName="fill" values="#f9f9f9;#231f20;#f9f9f9;" dur="10s" repeatCount="indefinite" /></circle><path d="M127.7 164.1h6.9l3 12.4 3.2-12.4h6.9l3.3 12.5 3-12.5h6.8l-6.4 24h-6.8l-3.3-12.8-3.3 12.8h-6.9l-6.4-24zM162.8 164.1H177v6.3h-7.4v2.5h7.4v6.3h-7.4v2.6h7.4v6.3h-14.2v-24zM185.1 170.5h-5.6v-6.3h17.7v6.3h-5.5v17.7h-6.6v-17.7zM211.3 179.5h-4.8v8.6h-6.9v-24h6.9v8.4h4.8v-8.4h6.9v24h-6.9v-8.6z"><animate attributeName="fill" values="#231f20;#f9f9f9;#231f20;" dur="10s" repeatCount="indefinite" /></path></svg>