<svg xmlns="http://www.w3.org/2000/svg" viewBox="0 0 800 1200" style="enable-background:new 0 0 800 1200" xml:space="preserve">
    <circle cx="624.4" cy="176.1" r="64" style="fill:#231f20"/>
    <path d="M582.5 176.1c0-6.9 5-12 12.1-12 5 0 8.6 2.4 10.6 5.7l-5.9 3.1c-.7-1.5-2.5-2.5-4.7-2.5-2.9 0-5.4 2.2-5.4 5.7 0 3.7 2.2 5.7 5.5 5.7 2 0 3.4-.8 4.1-2.4h-5.6v-6.1h13v3.5c0 6.1-4.7 11.3-11.3 11.3-8 0-12.4-5.5-12.4-12zm30-5.5H607v-6.2h17.2v6.2h-5.3v17.2h-6.4v-17.2zm14.2-6.2h13.5v6.1h-6.8v2.4h6.8v6.1h-6.8v8.7h-6.7v-23.3zm15.8 11.7c0-6.6 5.2-12 11.9-12s12 5.4 12 12c0 6.7-5.2 12-12 12-6.7 0-11.9-5.3-11.9-12zm17.1 0c0-2.9-2.1-5.4-5.2-5.4-3 0-5.1 2.5-5.1 5.4s2 5.4 5.1 5.4c3.2 0 5.2-2.4 5.2-5.4z" style="fill:#f9f9f9"/>
</svg>
