<svg version="1.1" id="Layer_1" xmlns="http://www.w3.org/2000/svg" x="0" y="0" viewBox="0 0 800 1200" style="enable-background:new 0 0 800 1200" xml:space="preserve"><circle cx="624.4" cy="1024.5" r="64"><animate attributeName="fill" values="#f9f9f9;#231f20;#f9f9f9;" dur="10s" repeatCount="indefinite" /></circle><path d="M582.3 1012.5h8c6.2 0 9.7 4.1 9.7 8.9s-3.4 9.1-9.7 9.1h-1.2v5.7h-6.8v-23.7zm6.8 6.2v5.5h1.1c1.5 0 2.8-.9 2.8-2.8 0-1.8-1.3-2.8-2.8-2.8h-1.1zM602.3 1027.3v-14.8h6.8v14.9c0 2 .8 3 2.4 3 1.6 0 2.3-1 2.3-3v-14.9h6.8v14.8c0 5.7-3.3 9.2-9.2 9.2s-9.1-3.4-9.1-9.2zM623.1 1012.5h6.9l7 11.1v-11.1h6.7v23.7h-6.4l-7.6-11.9v11.9H623v-23.7zM654.5 1027.2l-1.4 2.1v6.9h-6.8v-23.7h6.8v7.4l5.1-7.4h7.9l-6.7 9.4 7.2 14.3H659l-4.5-9z"><animate attributeName="fill" values="#231f20;#f9f9f9;#231f20;" dur="10s" repeatCount="indefinite" /></path></svg>