<svg version="1.1" id="Layer_1" xmlns="http://www.w3.org/2000/svg" x="0" y="0" viewBox="0 0 800 1200" style="enable-background:new 0 0 800 1200" xml:space="preserve"><circle cx="173" cy="176.1" r="64"><animate attributeName="fill" values="#f9f9f9;#231f20;#f9f9f9;" dur="10s" repeatCount="indefinite" /></circle><path d="M130.8 164.1h8c6.2 0 9.7 4.1 9.7 8.9s-3.4 9.1-9.7 9.1h-1.2v5.7h-6.8v-23.7zm6.9 6.2v5.5h1.1c1.5 0 2.8-.9 2.8-2.8 0-1.8-1.3-2.8-2.8-2.8h-1.1zM150.9 178.9v-14.8h6.8V179c0 2 .8 3 2.4 3s2.3-1 2.3-3v-14.9h6.8v14.8c0 5.7-3.3 9.2-9.2 9.2s-9.1-3.4-9.1-9.2zM171.7 164.1h6.9l7 11.1v-11.1h6.7v23.7H186l-7.6-11.9v11.9h-6.7v-23.7zM203.1 178.8l-1.4 2.1v6.9h-6.8v-23.7h6.8v7.4l5.1-7.4h7.9l-6.7 9.4 7.2 14.3h-7.6l-4.5-9z"><animate attributeName="fill" values="#231f20;#f9f9f9;#231f20;" dur="10s" repeatCount="indefinite" /></path></svg>