<svg version="1.1" id="Layer_1" xmlns="http://www.w3.org/2000/svg" x="0" y="0" viewBox="0 0 800 1200" style="enable-background:new 0 0 800 1200" xml:space="preserve"><circle cx="173" cy="176.1" r="64" class="blck" ></circle><path d="M132.4 164.4h6.8l6.9 10.9v-10.9h6.7v23.4h-6.3l-7.5-11.7v11.7h-6.7v-23.4zM155.2 176.1c0-6.9 5-12 12.1-12 5 0 8.6 2.4 10.6 5.7l-5.9 3.1c-.7-1.5-2.5-2.5-4.7-2.5-2.9 0-5.4 2.2-5.4 5.7 0 3.7 2.2 5.7 5.5 5.7 2 0 3.4-.8 4.1-2.4h-5.6v-6.1h13v3.5c0 6.1-4.7 11.3-11.3 11.3-7.9 0-12.4-5.5-12.4-12zM181.3 164.4h6.8l4.8 6.7 5-6.7h6.4v23.4h-6.7v-12.6l-4.7 6.4-4.9-6.6v12.8h-6.7v-23.4zM206.7 164.4h6.8v23.4h-6.8v-23.4z" class="wht"></path></svg>