<svg version="1.1" id="Layer_1" xmlns="http://www.w3.org/2000/svg" x="0" y="0" viewBox="0 0 800 1200" style="enable-background:new 0 0 800 1200" xml:space="preserve">
    <style>
        .st1{fill:#231f20}
    </style>
    <g id="Page-1">
        <path id="Shape-6_00000101801467675168893220000018178126733174933637_" d="M624.4 1088.5c-35.3 0-64-28.7-64-64s28.7-64 64-64 64 28.7 64 64-28.6 64-64 64z" style="fill:#f9f9f9"/>
        <g id="wbtc_colour">
            <path id="Shape" class="st1" d="m664.8 987.4-3.5 3.5c17.4 19 17.4 48.1 0 67.2l3.5 3.5c19.3-21 19.3-53.3 0-74.2z"/>
            <path id="Shape-2" class="st1" d="M590.9 987.7c19-17.4 48.1-17.4 67.2 0l3.5-3.5c-21-19.3-53.3-19.3-74.3 0l3.6 3.5z"/>
            <path id="Shape-3" class="st1" d="M587.6 1058.1c-17.4-19-17.4-48.1 0-67.1l-3.5-3.5c-19.3 21-19.3 53.3 0 74.3l3.5-3.7z"/>
            <path id="Shape-4" class="st1" d="M658 1061.3c-19 17.4-48.1 17.4-67.2 0l-3.5 3.5c21 19.3 53.3 19.3 74.3 0l-3.6-3.5z"/>
            <path id="Shape-5" d="M646.6 1012.8c-.7-7.3-7-9.8-15-10.5v-10.1h-6.2v9.9h-4.9v-9.9h-6.1v10.2h-12.5v6.6s4.6-.1 4.5 0c1.7-.2 3.3 1 3.5 2.7v27.8c0 .6-.3 1.1-.7 1.5-.4.4-1 .6-1.6.5.1.1-4.5 0-4.5 0l-1.2 7.4h12.4v10.3h6.2V1049h4.9v10.1h6.2V1049c10.4-.6 17.7-3.2 18.7-13 .7-7.9-3-11.4-8.9-12.8 3.5-1.8 5.7-5 5.2-10.4zm-8.7 22c0 7.7-13.2 6.8-17.4 6.8V1028c4.3 0 17.4-1.2 17.4 6.8zm-2.8-19.2c0 7-11 6.2-14.5 6.2v-12.4c3.5 0 14.5-1.1 14.5 6.2z" style="fill:#f09242"/>
            <path id="Shape-6" class="st1" d="M624.4 1088.5c-35.3 0-64-28.7-64-64s28.7-64 64-64 64 28.7 64 64-28.6 64-64 64zm0-123c-32.6 0-59 26.5-58.9 59 0 32.6 26.5 59 59 58.9 32.5 0 58.9-26.4 58.9-59 0-32.5-26.3-58.9-59-58.9.1 0 0 0 0 0z"/>
        </g>
    </g>
</svg>
