<svg version="1.1" id="Layer_1" xmlns="http://www.w3.org/2000/svg" x="0" y="0" viewBox="0 0 800 1200" style="enable-background:new 0 0 800 1200" xml:space="preserve"><circle cx="172.97" cy="1024.51" r="64" class="wht"></circle><path d="m142.95 1032.24 5.64-4.46c1.05 1.69 2.52 2.58 3.89 2.58 1.15 0 2.04-.7 2.04-1.4 0-.99-1.75-1.28-3.79-1.85-3.03-.83-6.76-2.2-6.76-7.01 0-4.37 3.38-7.59 8.45-7.59 4.43 0 7.08 1.98 8.73 4.02l-5.26 4.08c-.76-1.37-2.1-2.36-3.44-2.36-1.08 0-1.82.61-1.82 1.31 0 1.02 1.75 1.37 3.86 1.98 3.09.89 6.95 2.29 6.95 7.08 0 4.24-3.25 7.9-8.99 7.9-5.07-.01-7.56-2.11-9.5-4.28zM163.38 1024.53c0-6.6 5.2-11.95 11.89-11.95 6.63 0 11.92 5.35 11.92 11.95 0 6.63-5.2 11.95-11.92 11.95-6.7 0-11.89-5.32-11.89-11.95zm17.02 0c0-2.93-2.1-5.39-5.13-5.39s-5.1 2.45-5.1 5.39c0 2.93 1.98 5.39 5.1 5.39 3.12 0 5.13-2.46 5.13-5.39zM189.54 1012.9h6.69v16.86h6.76v6.41h-13.45v-23.27z" class="blck"></path></svg>