<svg xmlns="http://www.w3.org/2000/svg" viewBox="0 0 800 1200" style="enable-background:new 0 0 800 1200" xml:space="preserve"><path d="M526.7 515.9c-.3-7-.8-13.9-1.6-20.9-.8-6.4-1.3-13.4-3.5-19.3-3.5-9.9-6.9-19.5-12.2-28.6-6.4-11-15.1-20.3-25.4-27.2L356.5 207.1c-1-.9-3.1-2.2-4.5-1.6-2 .9-1 1.8-.5 3.6.3 1-.3 2.1-1.1 2.8-.8.6-1.8 1-2.6 1.5-2.9 1.8-4.3 5.9-3.4 9.2-.5 2-.7 4.2-1.4 6.2-1.1 3.5-3.7 6.2-5.6 9.3-2 3-3.3 7.3-2 10.8-.9 5.3-1.3 11.2 1 16.3.3.6.6 1.2.9 1.9.1.5.3 1 .5 1.6.4 1 .5 2.3.4 3.5-.1 2-.5 4-.7 6l-.3 1.8c-.6 4.1-1.2 8.2-1.3 12.4-.1 2.1.1 4.3.6 6.3-1 5.6.2 12 4.4 15.9 42.434 59.583-48.395 49.471-72.6 71.7-10.9 9.3-15.2 25.4-19.7 39.9-2.8 8.9-7.2 18.7-15.2 21.7-.9 0-1.8-.1-2.7-.2-1.6 4.5 15 6.1 22 1.7 3.3-2.1 6.5-5.3 10.3-5.4 4.3 0 10.3 5.4 14.7 5.7 3.7 1 7.6 1 11.4.9 4.6-.2 9.2-.7 13.8-1.3 7.8-.8 9.9.1 13.5-2.6 71.263-.615-6.46 17.228-13.5 41.5-.3.9-.6 1.9-.9 2.8-1.2 4.3-1.8 9-4.1 12.8-1.7 2.8-4.3 5.3-4.4 8.7-.1 2.6 1.3 5.1 1.4 7.7.1 3.5-2.3 6.5-3.2 9.9-1.4 5.2.7 10.7 1.7 16 1.4 7.1.9 14.6-1.5 21.4 2.9-.8 5.7-1.4 8.4-2.6-.1.1-.2.1-.2.2 7.2.9 14.4-2.2 20.4-6.1 2.7-1.8 5.2-4.4 8.1-5.7 4.7-2.1 9.3-1.3 13.1-5.5 2.1-2.3 4-5 6.7-6.3 1.2-.5 2.5-.8 3.7-1.4 2.1-1.1 4.5-4.9 4.5-6.3.8-1 1.6-2.1 2.2-3.3 1.2-2.4 2.2-4.4 4.7-5.5 4.4-2 5-5.4 7.5-9.4.5-.8 1.1-1.5 1.7-2.2 3.3-.6 4.7-2.4 7-5.5l1.2-.9c2.7-2.2 5-4.8 6.9-7.8 2.3-1.5 3.8-4.1 5.3-6.6-.5 1.9-.7 3.7-.8 5.7-.1 2 .2 4 1.2 5.6l.1-.1c1.2 1.9 4 2.5 4.7 4.7.2.5.2 1.1.4 1.6.3.9 1.2 1.4 2.1 1.6 3.4.6 5.3.1 6.4 3.6-.4 2.9-1.1 5.8-2 8.6l-.3.3c1.8 1.9 4.7 2 7.2 1.4 2-.5 3.8-1.3 5.8-1.9 1.5-.3 3.1-.6 3.1-.6v-.1c2.8-.3 5.7.2 8.4 1 1.7 1.4 3.2 1.4 4.6 1.4 1.8.6 3.6 1.2 5 2.5s2.3 3 3.5 4.5c2.4 2.9 5.8 4.4 9.4 5.4 1.8.5 3.5 1.6 5.1 2.6 1.5.9 3.3 1.7 5 1.3.3-.1.5-.5.3-.7-.9-1.1-.7-3.1 0-4.4.9-1.5 2.3-2.5 3.5-3.8 2.9-3.1 3.2-7.8 3.4-12.2.4-16.7-1.2-21.7-3-27.5-1-3.2-2.3-6.4-2.8-9.7-.2-1.8-.9-7.3 1.1-7.9.8-.2 1.8-.2 2.4-.8.5-.5.6-1.4.5-2.1-.2-1.2-1-1.8-.8-2.8 1.1-.9 2.3-1.2 3.6-1.9 1.3-.8 2.6-1.8 3.6-2.9 2.4-2.5 3.8-5.8 4.9-9 .3-1 .3-2.1.5-3.2.4-2.7 1.4-5.4 2-8.1.6-2.7 1-5.5.9-8.3 0-.8-.3-2.7-.5-4.2.1 0 .3.1.4.1 1.9 1 3.5 4.3 5.2 5.6 3.8 2.8 7.2 6 9.8 10 5.8 8.9 9.9 18.1 13.6 28.2 1.1 3 1.8 6 2.3 9 .2 1.1.5 2.2.7 3.2 0 .1 0 .2.1.3.2 1 .5 2 .7 3-.1 10.2.5 20.4 0 30.7-.9 17.1-.7 33.8-3.3 50.7-1.3 8-3.8 15.8-5.4 23.7-.9 4.6-.8 9.3-1.8 13.9-1.5 7.5-4.6 14.4-7.5 21.4-2.2 5.2-4.1 10.3-5.8 15.7-1.6 5-3.5 9.9-5.8 14.6-3.2 6.5-7.1 12.5-9.7 19.3-2.1 5.4-5.5 10.5-8.3 15.6-3 5.5-6 10.9-9 16.4-1.7 3.1-3.4 6.1-4.9 9.3l-.6 1.5c-.7 2.3-2.1 5.9-3.1 8-10 21.6-17.8 44.2-27.2 66-6.4 14.8-12.1 29.8-17 45.2-1.9 6-3.8 11.9-5.8 17.9-.5 1.7-2 4-3.1 5.4-.1.1-.1.2-.2.3-.4.8-.5 1.8-.5 2.8-5.9-5.6-9.1-14.4-12.6-22.2-8-17.4-20.3-27.1-31.7-41.2-9.3-11.6-11.5-30.6-18.4-44.1-9-17.8-23.7-31.7-32.5-49.5-8.4-17-8.6-64.1-10.6-78.3 0 0 0-.1.1-.1.4-.9 1.8-3.3 3.1-5.8.1-.3.3-.5.4-.8 1.3-2.5 2.3-5 2.3-5.9-.1-1-1.6 0-5.9 4.8-5.2 5.2-8.9 11.2-11.4 17.9-.3.7-.5 1.5-.8 2.2-.3 1-.7 2-.9 3-1.2 4-2 8.3-2.5 12.6l-.3 2.4c-2.5 28.1 6.5 61.2 11.6 85.4 1 4.8 2 9.6 3 14.5.2 1.2.5 2.4.7 3.7.5 2.4 1 4.9 1.5 7.4s1 4.9 1.5 7.4c1.8 8.6 3.8 17.3 6 25.8 1.3 4.9 2.6 9.7 4.1 14.5.7 2.4 1.5 4.7 2.3 7.1.4 1.2.8 2.3 1.2 3.5.8 2.3 1.7 4.6 2.6 6.9.5 1.1.9 2.3 1.4 3.4.9 2.3 1.9 4.5 3 6.7 2.1 4.4 4.3 8.7 6.7 12.9 25.3 43.6 60.8 116.8 71.2 127.8l-.3-.6c1.5 2.2 3.3 4.2 5.3 5.7.1 4.3.1 8.6-.1 12.9-.6 15.8-.8 31.6.4 47.4.3 3.4.8 7.2 3.4 9.1 2.6 1.9 6.5 1.3 8.6 3.7.5.6.9 1.4 1.4 2.1.5.7 1.3 1.2 2.1 1 .7-.1 1.1-.7 1.5-1.3 2.1-3.1 2.7-7 2.6-10.7-.1-3.8-.9-7.5-1.5-11.2-.7-4.9-1.1-9.8-1.2-14.7-.2-6.1-2.1-11.9-1.2-18 .9-6.2.3-13.1.2-19.5 3.8-1.9 7.1-5 9.4-8.7 4.8-7.9 5.6-17.7 5.6-27.1-.2-26 .2-60-14.5-78.9 1-7.4 2.3-14.6 4.2-21.8 3.3-13.1 7.9-25.7 12.7-38.2 1.2-3.2 2.5-6.5 3.7-9.7 4.3-11.1 7.9-22.4 11.3-33.8 3.4-11.4 10.4-21.7 15-32.7 2.4-5.8 4.3-11.8 7.1-17.4.2-.3.3-.6.5-1 .9-1.8 1.9-3.5 3.1-5.1 3.7-5.3 6.6-11.3 9.1-17.4 19.478-42.157 34.663-67.295 37.5-81.8 1.5-5.6 3.1-11.2 4.4-16.8.4-1.9.2-3.7.3-5.6.3-3 .9-5.9 1.3-8.9 1.6-11.6 2.8-23.3 3.9-34.9.7-8.6 1.2-17.2 1.3-25.8-.6-6.1-.7-11.3-.9-16.4z" style="opacity:.3;fill:#231f20"/></svg>