<svg xmlns="http://www.w3.org/2000/svg" version="1.1" id="Layer_1" x="0" y="0" viewBox="0 0 800 1200" style="enable-background:new 0 0 800 1200" xml:space="preserve"><path id="path4-3" d="M454.8 295.9c2.5-2.7 7.3-3.4 11-3.5 10.9-.3 21.5 2.2 30.9 7.7-11.1-9.4-19.6-19-31.6-24.8 4.4-.3 8.9.9 12.4 3.6-6.4-5.1-13.2-8.7-21-13.4-5.3-3.2-14.7-1.7-18.7 2.1 7 8 9.1 21.3 17 28.3zM427 238.8c4.4-2.1 9.6-1.8 14.2-.2s8.7 4.4 12.7 7.2c-1.6-3.2-3.7-6.1-6.1-8.7 5.9 2.2 11.4 5.4 16.2 9.4-2.5-4.3-6.7-7.1-10.5-9.9-3.2-2.4-5.7-5.5-8.6-8.2-3.1-2.9-6.5-3.5-10.7-3.8-2.3-.1-4.9-.2-6.8 1-.3.2-.5.6-.5 1 .2 4.3.5 8 .1 12.2zm71.3-9.5c-1.4-3.3-1.2-8.7-2.6-12-2.7-6.3-3.1-8.1-8.2-13.3-2.2-2.3-4.9-3.9-7.9-4.9-1.8-.6-3.4-1.3-5.2-2-2-.8-4-1.8-5.8-3-2.5-1.7-6.5-3.9-10.4-4.8-5.3-1.2-15.7-1.6-21.2-1.6-1.8 0-3.6.2-5.4.3-1.8-.1-3.5-.1-5.3-.1l.2.1c-1.4-.1-2.8-.3-4.1.2-.7.3-1.4.9-1.5 1.7-.1 1.3 2.4 2.3 3.2 3.1 1.2 1.3 2.3 2.8 2.9 4.4 1.5 3.5-.7 6.9 1 12 3.1 0 5.1.4 7.9 1.8 2.8 1.4 5.7 3.4 8.2 5.2 1-3.6-8.9-8.7-10.1-10.8.1.2 5.9 2.4 7 3.1 2.5 1.6 4.9 3.3 7.1 5.4-2.3-2.9-4.1-5.7-6.4-8.6 1.3 1.6 4.1 2.9 5.8 4.3 1.9 1.6 3.8 3.3 5.6 5.1 3.6 3.7 6.7 7.8 9.5 12.2 2.5 4 6.7 7.2 9.6 11 3.3 4.2 6.2 8.8 8.6 13.5-.2-4.6-2.8-8.7-5.2-12.7-1.5-2.4-2.9-4.9-3.6-7.6-.7-2.7-.1-5.2-.7-7.8-1.5-6.6-5.5-12.2-9.3-17.6 2.1.9 4 2 5.8 3.4.7-1.9-9.9-14.5-6.2-11.2l14.4 15.3c-1.1-6.7-4.8-12.3-10.1-16.4 5.3.9 11 5.1 14.2 9.2 2.9 3.8 6.9 12.3 6.4 17.2.5-4.4.2-8.9-1.3-13 3.8 4.6 4.7 10.7 6.6 16.4 1.8 5.5 8.6 9.9 16.3 18.4-2.1-3.9-8.7-13.5-9.8-15.9zm14.6 76c0 1.3.8 5.1.8 6.4.1 2.9-.3 5.8-1 8.6-.6 2.8-1.8 5.6-2.2 8.4-.2 1.1-.1 2.2-.5 3.3-1.2 3.4-2.8 6.8-5.4 9.4-1.2 1.2-2.5 2.2-4 3-1.768.74-2.535 1.164-3.652 2.34-1.117 1.175 3.212 5.396-2.217 5.826 6.52-2.324-3.231-7.166-5.243-8.716-2.013-1.55-3.588-3.65-4.388-6.05 1 1.9 3.3 2.9 5.4 2.5-4.8-4.1-7.7-10-8.9-16.2 3 5.2 7.9 9.1 13.4 11.7-2.8-4.2-8.3-7.4-8.2-12.5 2.3 3.6 5.2 7.3 9.2 8.3-2.4-1.6-3.9-3.8-5.2-6.3-1.4-2.6 1.7-.4 2.7 0 3.7 1.5 6.5.4 9.9-.2-2.7-.5-10.2.8-6.7-.9 2.6-.9 3.9-1.3 6.3-2.4 2.3-1 8.2-7 5.4-4.9-5 2.6-11.6 2.2-7.4.5 4.9-2.7 6.5-5.1 9.6-9.7.9-2.2 1.4-2.7 2.3-2.4zm-36 17.4c-2.5 2.9-4.3 6.4-5.1 10.2-.7-3.2.9-7.1 2-9.5.6-1.9-8 7.1-8.6 12.2-.7-3.7.2-8.2 2.5-11.2-9.8 4.1-9.8 17.4-9.6 26.5-3.1-5.2-4.9-11.4-4.2-17.5-3.4 2.6-4.4 12.9-4.5 20.7-2.1-4.1-2.6-9.1-2.6-13.6 0-1.9.2-3.8.3-5.8.1-1.8.5-3.5 1.4-5.1 3.3-5.7 9.4-4 14.5-5.7 4.6-1.6 9.4-1.5 13.9-1.2zm-34.4 12.5c-5.6 3.8-10.1 9-13.2 15-2.6 6.3-6.3 12.1-11.2 16.2-3.2.6-6.8 1-9.7 1.1-4.7.3-9.4 1.3-12.9 4.2-1.4 1.2-2.5 2.6-4 3.7-1.2.9-1.6 2-2.6 3 .4 1.6 1.9 2.4 3.5 2.9 3.2 1 6.7 1.1 10 .3-2.9-.2-6.5-1.1-8.2-3.4 5-.7 10 1.5 14.6-.5 3.1-1.4 5.1-4.5 6.9-7.4-.5 2-.7 3.8-.9 5.9-.2 2.1.2 4.1 1.3 5.9 5-5.3 10.1-11.3 11.6-18.4.7-3.5.5-7.4 2.2-10.6 3.2-6.5 7-13.3 12.6-17.9zm-13.6 35.2c3.7 10.4 3.7 22.2-.2 32.6 1.8.7 4.1-.5 5.1-2.1s1.2-3.6 1.2-5.5c.1-8.9-2.6-16.8-6.1-25zm13.6 5.3c3.7 3.8 7.4 7.6 10 12.2 2.6 4.6 4.1 9.6 2.9 14.7 1.9 1.6 3.7 1.6 5.3 1.6-.4-5.2-2.2-11.9-4.8-16.5-3.1-5.4-7.6-9.9-10.7-15.3-3.6-6.3-4.8-10.7-5.7-19.2-.9-6.8-1.3 23.8 2.5 36 .7 2.2 1.6 4.4 1.5 6.6-.1 1.8-1.1 3.1-2.3 6.9 1.6-.2 5.1-.9 5.1-.9 0-1.4-.6-3.3 0-4.6 1.2-2.9.5-5.7-.3-8.6-1.1-4.2-2.9-8.7-3.5-12.9zm19.3-12.9c1.2 5.8 3.9 11.2 6.9 16.3 3.3 5.7 6.8 11.2 8.9 17.5 2.2 6.5 3.2 13 2.4 19.8 0 .3.1.5.4.5 2 .5 3.9 1.7 5.7 2.7 1.7 1 3.7 1.7 5.5 1.4.3-.1.5-.5.3-.8-.9-1.2-.8-3.2 0-4.6.9-1.6 2.5-2.6 3.8-3.9 3.3-3.2 3.6-8.1 3.7-12.7.5-18.7-9.325-37.745-6.014-45.633-5.019 6.097.204 17.028-.496 18.628-2.9-2.2-4.09-3.295-7.59-4.495 1.6 1.3 2.8 2.9 3.8 4.7-3.6.4-7.4-1-10-3.5-.3-.3-.8 0-.6.4 1.7 3.5 5.4 7.6 8 11.1-6.1-3.7-11.3-6.8-15.6-12.8 1.7 7.7 8 14.4 14 21.1 1.4 1.1 2.2 1.9.5 1.2-6-2.1-10.4-7.2-14.1-12.3-4.2-5.9-9.892-18.008-12.692-24.708.1 2 2.792 8.408 3.192 10.108zM400.9 386c-3.5 4.4-5.1 6.3-12.2 6-2-.1-3.9-.2-5.9-.4-.7-.1-1.2-.7-1.1-1.4v-.2c2.1-8.4 9.5 3.6 19.2-4z" ><animate attributeName="fill" values="#yyyyyy;#xxxxxx;#xxxxxx;#yyyyyy;" dur="10s" repeatCount="indefinite" /></path><path id="path6-6" d="M501.8 199c-1.7 5.4-2.6 11-2.6 16.6 0 2.9.2 5.7.6 8.5.2 1.5-.5 4.3 2 6-.8-2.3-.7-4.9-.7-6 0-.7.1-1.6.8-1.8 5.2.1 3.4 8.7 3.7 12.6 3.6-3.9 3.1-11.5 3.4-16 1.5.6 2.5 2.2 2.8 3.8.3 1.6 0 3.2-.3 4.8-.3 1.6-.7 3.2-.5 4.8.2 2.5-.3 6.3 4 7-2.8-5.1.2-12.3-1.4-17.9-.7-2.5-2.1-4.7-3.6-6.8-5.7-7.5-3.1-13.5-8.2-15.6zm-2.9-40.8c-2.6 4.3-7.6 6.8-9.9 11.3-1.9 3.7-.8 8.2-.9 12.4-.1 5.6 1.8 10.1.7 14.2 2.2-2.8.8-4 1.7-5.2.9-1.1 2.4-1.9 3.8-1.5 1.5.4 2.4 2.3 3.1 3.6-2.2-6-4.3-12.8-3.2-19.1 1.1-5.4 4.6-10.3 4.7-15.7zm-24.4 34.9c0 .7-.6 1.3-1.2 1.3-.2 0-.3.1-.5.1-.5.2-1 .7-1.4 1.1-2-.5-3.8-1.9-5.5-3.1-2.2-16.2 4.7-32.4 9-47.8 4.6-16.3 9.7-43.3 10.4-49.7 1.7 7.3 1 15.7.1 23.4-.6 4.8-1.9 9.5-3.1 14.2-6.7 20.4-6.8 40.7-7.8 60.5zM411.1 108c-1.7 4.3-2.2 9.1-2.6 13.6-.2 2.2.4 4.4.5 6.6 0 1.5-2.2 4.4-.3 6 1.2-3.1 2.3-6.2 3.5-9.3.2 7.4-.8 14.8-2.9 21.9 2.4-1.7 4.4-6.1 5.7-9.5-.3 9.9.5 19.7 2.6 29.4 1.4-10.8 2.3-21.6 3.1-32.5.2-8.7.8-5.5 4.1-9.8 1-1.5.6-5.6 0-7-1-2.5-4-4.5-6.4-5.2-1.2-.4-2.5-.5-3.7-1-1.7-.6-2.1-2.6-3.6-3.2zm-25.8-20.3c0 .4-.3.7-.6 1-1.8 1.5-1.5 4-1.3 6.2 1 10.6 2 21.1 3.1 31.7-5.8-9.5-5.5-23.3-11.1-32.3-3.4.2 3.2 8.6 1.1 7.9-1.4-.5-3.2-2.7-4.1-4.5-.9-1.9-2.1-3.8-3.8-5.1-1.7-1.4-4-1.5-6.1-1.5-1.7-3.6 0-8.5 3.4-10.5 1-.6 2-.9 2.9-1.6.9-.7 1.5-1.8 1.2-2.9-.6-1.8-1.7-2.8.5-3.7 1.6-.6 3.8.7 4.9 1.7 1.6 1.4 2.8 3.3 4.3 4.9 2.1 2.1 4.8 3 7.4 4.2.4.2.8.3 1.1.6.3.3.5.7.5 1.1-2.3.1-3.9.6-3.4 2.8zm-27 21.9c-1.1.1-1.7 1.5-1.5 2.6.3 1.1 1.1 1.9 1.9 2.7 2 1.9 4.2 3.6 5.8 5.8.9 1.2 2 2.3 3.1 3.4.6.5 1.3 1 1.8 1.5.6.6 1.1 1.1 1.2-.1.1-1.2-.9-2.5-1.5-3.5-.9-1.3-2-2.5-3.1-3.7-1.6-1.7-3.2-3.5-3.9-5.8-.4-1.8-1.7-3.1-3.8-2.9zm32.2-17.1c-1.9 2.2-2.2 5.3-2.3 8.2 0 3.9.8 10.7 1.6 10.7s.2-6.9.3-10.8c.1-1.1.1-2.3.7-3.3.6-1.1 1.6-1.6 2-2.8.2-.6.1-1.4-.3-1.9s-1.6-.6-2-.1zm52.5 38c-2.9.7-3.2 3.6-4.4 5.7-1.8 3-4 5.8-5.5 9-1.8 3.7-2.9 7.9-2.7 12 .3 4.5 1 7.6.2 13.3 2.2-4.2 1.5-9 1.4-13.5-.2-6.7 2.4-12.2 6.3-17.5-1 7.5.9 15.7 2.8 22.9 1 3.8 3.1 18.9 7.7 22.2 1.1-3.6-2.1-13-2.8-19.6-.4-3.3-.7-6.5-1.2-9.8-.1-.7-1-2.8-.8-3.5.4-1.1 1.2-.6 1.7.2.6.9 2.2 3.8 2 4.9 1.4-8.4-1.5-18.5-4.7-26.3zm12.5-23.6c1.4-1.4 3.2-3.7 5.4-5.2.1 0 .1 0 .2.1 3.6 8.1 5.5 18.3 3.4 26.9-.9-2.4-1.5-5.1-2-7.6.4 7.6.9 21.1-1.7 22.8 0-9.4-2.6-12.8-3.4-23.1-2-4.8-1.3-9.4-1.9-13.9zm29.6-22.8c-.1 6.4 7.2 11 7.5 17.5.2 2.9-1.1 5.9-.4 8.7.5 1.8 1.7 3.4 2.5 5.1 1.7 3.6 1.6 7.7 1.8 11.7.2 4 2.1 6.7 4.7 12.7-1.7-9.4-2.7-17.2-2.7-25 0-7.8-.6-16-4.3-22.8-2.1-3.8-5.2-7.5-8.3-10.5-1-1-.8 1.6-.8 2.6zM355 135.3c1.8-.2 3.9-.2 5.5.6 1.9 1 3 2.9 4.2 4.7 2.1 2.9 4.9 5.3 7.3 8 2.4 2.7 4.6 5.8 5 9.4-1.7-2.6-3.8-4.9-6.3-6.7-.3-.2-.5-.4-.8-.3-.5.1-.7.6-.6 1.1.1.5.4.8.7 1.2 2.1 2.6 3.5 5.7 4.1 9-4.4-4.8-8.8-9.8-13.2-14.6-.7-.8-1.5-1.6-2.5-1.7-1.4-.2-2.7 1.1-3.6 2.1.2-2.1.7-4.2.8-6.3.1-1.2 0-2.6-.5-3.7-.7-1.3-1.2-2.7-.1-2.8zm46.1 62.7c2.6 5.9 6 11.6 9.8 16.9-1.7-6.6-2.6-13.4-3.5-20.2 2.4 6.9 5.7 13.5 9 20 .5-3.8.2-7.9-1.1-11.6 6.1 3.7 3 14.6 9.4 22.9.8 1.1.3 3.8.1 5.5-.1.7-.2 1.1-.5.2-.6-2.1-.8-3-1.8-4.2-.1 3.1-.6 6-1.4 9-1.1-2.6-.5-3.5-1.4-5-2.5 2 3.1 14.4 1.7 14.7-9.5-13.9-16.5-29.4-20.5-45.7-.1-1 .2-1.7.2-2.5zm-9 25.6c-.7.2-1.5.2-2.2 0-4.6-1.3-7.5-5.8-11.3-7.6-2.3-.7-4.8.6-6.4-.9-1.1-2.4-2.4-4.7-3.3-7.1-.9-2.4-1.6-4.8-2-7.3-.5-2.9-1-6.4-2.6-8.9-1.5-2.4-3.8-4-5.9-5.9-4.7-4-6-10.6-4.9-16.5 4.3.7 8.4 2.5 11.6 5.4 3.5 3.3 6.2 7.3 9.1 11.1 6.5 8.7 13.9 16.6 20.9 24.8 6.7 7.8 12.1 17.1 16.6 26.4-7.6-7.4-15.7-14.7-23.3-22.1-2.5-2.4-5.3-5-8.7-5.1-.5 0-1.2.2-1.2.7 0 .3.2.5.4.7 4.5 4.2 9.9 8.4 14.2 12-.3 0-.7.2-1 .3zM236.2 323.7c4.5.7 9-.1 13-2.3 3-1.6 5.5-4 8.6-5.3 4.7-2 10.2-1.5 15 .4 4.8 1.9 11.5 6.3 15.6 9.3-4.8-.3-11.5-6-16.3-5.9-4.2 0-7.8 3.4-11.4 5.6-7.9 4.5-26.2 2.9-24.5-1.8zm269.9-35.5c-2.2-4.9-5.5-9.1-8.8-13.3-4.5-5.8-9-11.6-13.6-17.3 11.2 10.7 22.9 22.2 26.8 37.1-.8-10.6-5.7-20.9-13.3-28.3 8.8 5.4 12.7 16 16 25.9-.8-2.2-.2-5.4-.8-7.8-1.9-8.2-7.7-14.9-12.4-21.7 6 3.3 9.6 8.7 12.5 14.6.7 1.5 3 6.5 2.7 8.1 3.8-2 0-21-2.2-32 3.4 8.9 7 18 6.7 27.5-.2 8.5-2 13.9-6.5 19.1-8.1 9.5-4.5 4.4-5-.2-.3-4.2-.4-7.7-2.1-11.7zm-184 149.4c2.4-3 5.4-5.8 7.5-9 2.3-3.5 3.9-7.4 5.7-11.2 2.3-4.7 5-9.5 9.3-12.5-4.2 6.6-7.6 13.6-10.3 21 .1-.4 6.6-1.3 7.1-1.4 3.1-.4 6.3-.5 9.4-.8 9.3-1.1 17.1-4.7 24.5-10.5-.1 1.4-2.7 5.4-5 6.5-1.3.6-2.7.9-4 1.4-3.1 1.3-5.1 4.1-7.4 6.5-4.2 4.4-9.2 3.5-14.5 5.7-3.2 1.3-5.9 4.1-9 6-6.7 4-14.6 7.3-22.5 6.3 3.2-2.8 6.5-4.7 9.2-8zm30.4-197.9c8.1 10.1 19 18 31.2 22.3 7.1 2.4-10.9-7-10.1-11.1 8.6 4.6 17.2 9.3 25.8 13.9-2.3-3.1-4.7-6.1-7-9.2 1.8-.6 7 4.5 5.5 2.6-2.4-3-4.8-6-7.2-9.1-3.3-4.1-6.7-8.3-11.1-11.2-5.4-3.4-18.2-1.6-24.5-1.7-4 0-7.4-2.5-2.6 3.5zm33.9 1.8c3.7 6.2 9.7 11.7 15.7 15.6-2.2-3.2-4.1-6.5-6.4-9.7 6.7 3.1 12.9 6.8 18.6 11.4-3.5-3.6-7.5-6.7-11.7-9.5-1.7-1.1-4-3.1-6.1-3.6-1.9-.5-2.7.6-4.4-.9-.6-.5-.7-1.2-1.3-1.6-2.1-1.3-.8 0-4.4-1.7zm-74.3 3.3c2.8 4.6 7.5 7.8 12.4 9.8 5 2 10.3 3 15.6 3.9-6.6-3.2-13.1-7.2-19.1-11.5-2.5-1.9-5.8-3.1-8.9-2.2zm42.2 4.5c-.6-5.7-5.3-8.3-7.3-13.3.2.5-.8 1.8-.9 2.3-.7 3.9 5.8 8.6 8.2 11zM277 261.2c0 .1-.1.2-.1.3-1.1 2.7 2.2 3.6 4 4.7 6.7 3.8 14.3 6.1 22 6.6-4.7-1.6-9.3-4-13.5-6.6 1.9 1.2 5 1.7 7.2 2.3 2.4.7 4.7 1.5 7.1 2.2 5.4 1.6 10.9 2.5 16.5 2.7-6.2-1.9-12.3-5-17.7-8.8 8.4-.3 16.1 4.3 24.2 6.6 18.1 5.2 38.1-.4 56 5.5-3.4-1.1-6.8-2.9-10.2-4.1-3.3-1.2-6.5-1.2-10-1.4-8.1-.6-16.1-1.9-24-3.8-9-2.1-17.9-4.1-25.4-9.8-2.8-2.2-5.4-4.8-8.8-6-8.5-3-18 2.5-24.7 7.2-1 .5-2.1 1.3-2.6 2.4zm38.5 64.1c-.6-6.2 4.5-12.7 9.8-16 5.3-3.3 22.5-8.4 17.6-5.6-4.3 2.9-8.1 6.7-11.2 10.9 4.4-2.4 8.9-4.4 13.6-6.1 6.5-2.3-6.4 4.2-9.6 6.2-2.7 1.6-6.1 4.6-4.7 7.8-4 2.9-6.3 1.9-15.5 2.8zm-51.6-35c1.2 2 3.5 3 5.7 3.6 7.5 2.1 15.4 1.4 22.4-2 9.6-5.6-19.9.7-28.1-1.6zm50.9-1.9c20.8-2.1 44.5-3.6 62.5 2.1-2.7 2.1-5.8 2.4-9.1 2.8-7.9.9-15.9 1.7-23.8 2.6 4.9.1 9.8.8 14.7.4 10-.6 17.5 1.4 25.9 4.3 5.1 1.8 6.6 2.1 11.9 3 6.5 1.1 13-1.1 18.5-4.7 0-.8-.7-1.3-1.3-1.7-4.1-2.7-8.3-5.3-12.6-7.6-4.3-2.3-8.6-4.6-13.5-4.5-1.5 0-3 .2-4.4-.2-3.5-1.8-7.2-3.6-10.8-3.8-2.5-.2-5.1-.1-7.6.3.5.2 3.1 1.3 3.9 1.5 1.5.3 6 1.2 6 1.8 0 .6-.8.5-1.2.5-10.5-2.3-21.2-3.4-31.9-3.1-3.6.1-7.1.3-10.6 1.1-3.4.7-16.6 5.2-16.6 5.2zm44.8 31.5c2.2-5.3 7.4-8.8 12.9-10.4 5.5-1.6 11.3-1.4 17-1.2-4.4 1-8.5 3.4-12.2 6.2 2.3-.8 4.9-.9 7.3-.8-2.6-.2-5 4.3-7.2 5-2.9.9-6.9-.5-10 .1-2.7.5-5.2 2.1-7.8 1.1zm32 .8c6.8 2.6 14.4 6.1 19.6 4.2 3.3-1.2 6.7-1.9 10-2.8-4.3.6-8.7.5-13.1.6-2.3 0-4.6-.3-6.8-.7-1.6-.3-6.3-1.3-9.7-1.3zm-42.2 20.7c-1 .1-1.9.7-3.4 1.5-2.3 1.3-4.6 2.7-6.7 4.3-3.2 2.4-6.5 2.9-10.2 4.2-6.1 2.2-10.8 6.9-13.1 14.4 4.5 2.1 9.1 2.3 14.1 2 5-.3 9.8-1.4 14.7-2.5-4.1-.4-10.4.7-12.6-1.6 3.4-1.8 7.7-1.1 11.6-1.2 3.9-.1 7-2.1 10.2-4.3 0 .1-9.1 0-12.8 0 2.4-1.4 5.9-2.8 8.7-3 2.7-.2 5.5-.2 8.2-.8 2.7-.6 5.3-2 6.8-4.3-2.2-.2-4.4-.3-6.6-.5 1.1.1 3.8-1.9 5-2.3 2-.6 4.2-.6 6.2-.8 1.4-.1 2.7-.3 4-.7 1.3-.4 2.5-1.2 3.3-2.3-6.8.3-15.9.2-22.7-.1-2.6-.1-2.3-2.1-4.7-2zm-40.9 52.8c9.5 1.9 19.3 0 27.4-5.3.2 1-1.6 2.7-4.1 4.8 0 .2-.8.7-.9 1 .8.1 5.4-2.6 6.8-3.4-1.8 2.1-4.1 3.7-6.6 4.9-2.5 1.2-5.1 2-7.8 2.8-2 .6-4.1 1.3-6.1 1.6-1.7.2-4.1.4-5.6-.4-1.1-.6-1.3-2.3-2.1-3.2-.4-.4-.6-.5-.8-1.2-.1-.1-.3-1.6-.2-1.6zm59.1 20.1c2.3-2 3.3-5.1 3.6-8.1.3-3 0-6.1.3-9.1.4-5.8 2.1-13.9 4.8-19.1 4.5-9.2-5.5 6.6-7.4 10.9-3.6 7.9-4.2 17.2-1.3 25.4zm-32.4-9.1c-4.4 3.9-8.8 8-14.3 10.3-5.4 2.3-12 2.6-16.9-.7 10.6-.4 22.1-4 31.2-9.6z" ><animate attributeName="fill" values="#yyyyyy;#xxxxxx;#xxxxxx;#yyyyyy;" dur="10s" repeatCount="indefinite" /></path><path id="path8-7" d="M305.2 410.5c7.3 2.3 15.9-.6 20.4-6.8-3 2.4-6.8 2.3-10.6 2.8s-7.1 1.3-9.8 4zM442 331.8c-7.4 2.2-13.7 6-18.9 9.1.3-1.3.8-2.6 1.5-3.8.7-1.2 2.7-2.3 1.3-3.4-1.5-1.2-6.9-.2-12.6-.1 1.8-1 3.3-2.6 5.1-3.6-2-.8-8.1 3.2-12.5 3.4-4.4.2-8.7-.1-13.1.5-4.1.6-8 1.9-12 2.8-4 .9-8.3 1.2-12.1-.3 3.8 2.6 8.4 3.2 13 2.7 10.5-2.6 21.4-3.3 32.2-2.3-6.4 2.6-12.6 6.3-17.7 11 6.5-3.6 23.7-10.9 20.7-8.2-4.8 3.6-9.1 7.7-13.2 12.1 11-5.5 18.5-7.5 20.8-8.9 2.9-1.8 5.4-4.4 8.4-6.1 3.5-1.9 3.1 2.8 9.1-4.9z" ><animate attributeName="fill" values="#yyyyyy;#xxxxxx;#xxxxxx;#yyyyyy;" dur="10s" repeatCount="indefinite" /></path><path id="path10-5" d="M316 422.9c.4-.5.9-1 1.5-1.2.6-.2 1.4-.1 1.8.5.4.8-.2 1.7-.8 2.3-2.4 2.3-6.1 4.2-9.4 4.2 1-.8 2.3-1.2 3.4-2.1 1.3-1.1 2.4-2.4 3.5-3.7z" ><animate attributeName="fill" values="#yyyyyy;#xxxxxx;#xxxxxx;#yyyyyy;" dur="10s" repeatCount="indefinite" /></path><path id="path12" d="M481.8 240.5c1.7 3.2 4 6.1 7 8-3.9-4.5-6.6-9.9-7.9-15.7-.4-1.8-2.6-4.7-2.5-1.2.2 2.9 2.2 6.4 3.4 8.9z" ><animate attributeName="fill" values="#yyyyyy;#xxxxxx;#xxxxxx;#yyyyyy;" dur="10s" repeatCount="indefinite" /></path><path id="path14" d="M463.3 251.4c3.2 2.4 3.9 3.3 10.1 6.7-5.7-1.4-10.9-4.5-15-8.7-1.2-1.3-.9-3 .9-2.1 1.4.7 2.7 3.1 4 4.1z" ><animate attributeName="fill" values="#yyyyyy;#xxxxxx;#xxxxxx;#yyyyyy;" dur="10s" repeatCount="indefinite" /></path><path id="path16" d="M491.3 140.1c.7-.3 1.6-.2 1.8.7.2.7-.3 1.4-.7 1.9-1.4 1.9-7.4 13-7.4 13-.1-3.2 4.5-14.8 6.3-15.6z" ><animate attributeName="fill" values="#yyyyyy;#xxxxxx;#xxxxxx;#yyyyyy;" dur="10s" repeatCount="indefinite" /></path><path id="path18" d="M497.1 144.6c.4-.4 1-.9 1.4-.5.3.3.1.9-.2 1.3-1.7 2.3-3.6 4.7-5.9 6.4 0 0 3.4-5.7 4.7-7.2z" ><animate attributeName="fill" values="#yyyyyy;#xxxxxx;#xxxxxx;#yyyyyy;" dur="10s" repeatCount="indefinite" /></path><path id="path20" d="M358.1 381.9c-1.2 2.3-2.8 4.2-4.4 6.2-1.8 2.1-3.8 4.1-6 5.8-2.2 1.7-3.2.8-1.3-1.4 1.4-1.6 3.5-2.4 5-3.9 2.3-2.2 4.4-4.3 6.7-6.7z" ><animate attributeName="fill" values="#yyyyyy;#xxxxxx;#xxxxxx;#yyyyyy;" dur="10s" repeatCount="indefinite" /></path><path id="path22" d="M267 310.1c3.9-.2 7.5-2.6 11.1-4.2 4.7-2.1 9.5-4 14.3-5.8 11.3-4.2 28.1-8.9 36.7-8.8-8.8 2.9-22.1 5.7-32.8 9.5-5.4 1.9-10.6 4-15.9 6.3-5.4 2.4-9.7 6-15.9 4.2-.4-.1-1.1-.5-.7-1 .5-.6 2.5-.2 3.2-.2z" ><animate attributeName="fill" values="#yyyyyy;#xxxxxx;#xxxxxx;#yyyyyy;" dur="10s" repeatCount="indefinite" /></path><path id="path24" d="M309.6 289.4c-1.7.4-3.1 1.6-4.5 2.5-1 .6-6.2 2.3-3.9-.1 1.6-1.6 6.2-2 8.4-2.4z" ><animate attributeName="fill" values="#yyyyyy;#xxxxxx;#xxxxxx;#yyyyyy;" dur="10s" repeatCount="indefinite" /></path><path id="path26" d="M365.5 372.7c1.8-1.5 3.7-2.5 4.3-1.7-2 2.4-4.9 4.2-6.9 6.6-1.3 1.6-2.8 1.5-1.6-.6.4-.7 2.3-2.7 4.2-4.3z" ><animate attributeName="fill" values="#yyyyyy;#xxxxxx;#xxxxxx;#yyyyyy;" dur="10s" repeatCount="indefinite" /></path><path id="path28" d="M389.8 351.7c-2.9 2-4.1 5.6-7.7 6.9-.5-2.6 5.9-5.6 7.7-6.9z" ><animate attributeName="fill" values="#yyyyyy;#xxxxxx;#xxxxxx;#yyyyyy;" dur="10s" repeatCount="indefinite" /></path><path id="path30" d="M371.8 376.1c.2-.2.4-.4.5-.7.1-.3 0-.6-.2-.7-.3-.2-.8 0-1.1.3-1.9 1.5-3.5 3.5-4.6 5.7-.3.7 3.3-2.3 5.4-4.6z" ><animate attributeName="fill" values="#yyyyyy;#xxxxxx;#xxxxxx;#yyyyyy;" dur="10s" repeatCount="indefinite" /></path><path id="path32" d="M395 353.8c.2-.2.5-.3.7-.3.3 0 .6.1.7.4.1.3-.2.6-.4.8-2.4 2.2-5.6 4.4-8.8 5.1 4.1-2.7 6.4-5.1 7.8-6z" ><animate attributeName="fill" values="#yyyyyy;#xxxxxx;#xxxxxx;#yyyyyy;" dur="10s" repeatCount="indefinite" /></path><path id="path34" d="M374.1 365.9c1-1.8 1.8-1.5 5.1-3.2-.9 1.9-6.1 5.2-5.1 3.2z" ><animate attributeName="fill" values="#yyyyyy;#xxxxxx;#xxxxxx;#yyyyyy;" dur="10s" repeatCount="indefinite" /></path><path id="path36" d="M358.8 391.7c-1 2.7-1.3 8.3-1.9 6.2-.6-2.1.5-4.7 1.9-6.2z" ></path><path id="path38" d="M385.9 365.6c-3.1 2.6-2.2 3.1-3.3 4.6-1 1.4-3 1.2-2-.7.7-1.4 4.2-3.6 5.3-3.9z" ><animate attributeName="fill" values="#yyyyyy;#xxxxxx;#xxxxxx;#yyyyyy;" dur="10s" repeatCount="indefinite" /></path><path id="path40" d="M362.5 387.5c0 .1 1.3-1.1 1.3-1.3.2-.5.5-1.4.1-1.8-1-1-1.4 2.4-1.4 3.1z" ><animate attributeName="fill" values="#yyyyyy;#xxxxxx;#xxxxxx;#yyyyyy;" dur="10s" repeatCount="indefinite" /></path><path id="path48" d="M405.3 190.5c-1.4-4.3-1.6-9.4-2.4-13.8-.9-4.8-2.9-10-4-14.8-1.2-5.6-1.3-10.7-2.9-16.2-.5-1.9-3.2-12.6-5.2-9.3-.4.7-.3 2.4-.2 3.2.2 2.4 1.3 4.7 1.9 7.1 1.3 4.9 2.7 9.8 4 14.7 2.8 9.7 5.8 19.4 8.8 29.1z" ><animate attributeName="fill" values="#yyyyyy;#xxxxxx;#xxxxxx;#yyyyyy;" dur="10s" repeatCount="indefinite" /></path></svg>