<svg xmlns="http://www.w3.org/2000/svg" viewBox="0 0 800 1200" style="enable-background:new 0 0 800 1200" xml:space="preserve">
<path class="stem" d="M430.3 370.4c.5.5.823.787 1.223 1.287 1.145 1.68 3.22 2.1 4.877 2.613 7.5 2 14 6.8 21.4 8.9 2.4.7 4.9 1.1 7.3 1.2 2 .1 1.6 2.7 6 2.4-7.7-5.5-14.4-10.6-20.1-18.3-2.2-3-4.05-8.18-6.65-10.68-3.864-3.606-11.25-3.32-14.75 1.68-3.1 4.3-2.3 7.9.7 10.9z"></path>
<path d="M430.995 371.121c1.458 1.583 1.454 2.068 5.405 3.179 7.475 1.975 13.95 6.77 21.363 8.895 2.4.7 4.944 1.103 7.344 1.203 2 .1 1.593 2.702 5.993 2.402-.72-.493-3.49-2.51-4.142-3.005-1.2-.8-2.358-1.095-3.658-1.595-3-.9-6-2.1-8.3-4.3-2-1.9-3.6-4.5-6.3-5.1-3-.6-6.1 1.8-8.7-.3-5.6-4.7-5.2-13 .4-12.7 3.4.2 5.7 5.6 9.1 6.3-4.302-8.167-4.998-9.06-9.423-10.499-5.528-1.824-12.854 3.518-12.403 10.07.3 2.2 2.02 4.05 3.32 5.45z" style="opacity:.3;fill:#000000"/>
</svg>