<svg xmlns="http://www.w3.org/2000/svg" viewBox="0 0 800 1200" style="enable-background:new 0 0 800 1200" xml:space="preserve"><g style="fill:#545145;fill-opacity:1"><path d="M454.6 387.7c-1.6.8-3.1 1.8-4.6 2.7-2 1.2-4.1 2.5-6.3 3.5-2.4 1.1-5.1 1.8-7.8 1.7-.7 0-1.4-.3-2.1-.4.3-.2.7-.5 1-.8.6-.6 1-1.3 1.2-2.1 2-.1 4.1-.7 6.3-1.9 2-1.1 3.8-2.5 5.6-3.9l1.1-.8c2.4-1.8 4.5-3.2 6.8-4l-.3-.9c-2.5.9-4.6 2.3-7.1 4.2l-1.1.8c-1.7 1.3-3.5 2.7-5.5 3.8-1.9 1-3.9 1.6-5.6 1.7 0-1.2-.7-2.3-2.6-2-2.4.3-5 2.2-7 3.6-3.5 2.4-6 5.9-7.2 10.1-.7 2.6.9 6.8 3.9 3.7.7-.7 1.1-1.7 1.6-2.6 1.6-3.1 4-5.7 6.9-7.6 0 0 .1 0 .1-.1 1.4.5 3 .6 4.5.5.5 0 1-.1 1.5-.2 4.7-.7 8.6-3.1 12.6-5.5 1.5-.9 3-1.8 4.5-2.6 4.4-2.3 6.465-5.023 9.765-4.323l.2-1c-3.5-.8-5.765 2.023-10.365 4.423Z" style="fill:#545145;fill-opacity:1"/><path d="m453.3 381.5-.5-.9c-11 6.3-25.9 8-37.6 4.5 1 .1 2.1.1 3.1.1 5.9 0 11.7-1.3 17.5-2.5 4.8-1 11.201-2.605 15.601-2.805v-1c-4.4.2-10.901 1.805-15.801 2.805-7.9 1.7-16.1 3.5-24 1.8.8-.4 1.6-.8 2.4-1.1 1.2-.4 2.5-.8 3.7-1.4 1.2-.6 2.2-1.5 2.7-2.7 2.1-6.1-7.6-3.3-10-2.4-4.9 1.8-9.1 5.1-11.8 9.4-2 3.3-.5 9.1 4.1 6 1.3-.9 2.2-2.2 3.3-3.4 1.3-1.4 2.7-2.6 4.3-3.6 5.2 2.4 11.4 3.5 17.8 3.5 8.7.1 17.8-2.1 25.2-6.3zM432.9 345.6c.5 1.1 1.3 2.3 2.4 2.8 1.1.5 2.9.1 3.1-1.2.1-1.1-.5-1.5-.7-2-2.6-5.1-3.4-11.9-7.3-15.5-.8 4.9.3 11.5 2.5 15.9zM422 347.2c.5 1.7.2 3.6.9 5.2.5 1.1 1.7 2 2.8 1.7 1.1-.3 1.7-1.6 2-2.8 2.3-8.2 1.3-17.2-2.6-24.8-.5-1-1.1-1.9-1.9-2.5-.8-.6-2.1-.7-2.9 0s-.8 1.9-.8 3c.1 4.5.2 9.2.9 13.7.3 2.2.9 4.4 1.6 6.5zM405.5 359.2c3.2 2.8 8 4.5 12.1 3.2 5-1.5-2.4-5.9-4.2-7.4-4-3.4-5.6-8.8-9.2-12.5-1.4-1.5-3.8-2.7-5.4-1.4-1.4 1.2-1.1 3.3-.6 5 1.4 4.9 3.5 9.7 7.3 13.1z" style="fill:#545145;fill-opacity:1"/></g></svg>