<svg xmlns="http://www.w3.org/2000/svg" version="1.1" id="Layer_1" x="0" y="0" viewBox="0 0 800 1200" style="enable-background:new 0 0 800 1200" xml:space="preserve"><path d="M419.7 362.4c-5 4.3-4.8 18.5 4.3 17.1 2.3-.3 4.2-2 5.3-4s1.3-4.4 1.1-6.7c-.2-2.3-.9-4.5-1.6-6.7 2.9-.6 6-1.4 8.5-3.1 2.4-1.7 4.1-4.9 3.2-7.7-1-3-4.6-4.5-7.7-3.9s-5.6 3-7.3 5.6c-.8-2-1.1-4.4-3.5-5.2-1.8-.6-3.8-.1-5.2 1.1-4.5 3.9-2.4 11.6 2.9 13.5z" id="path4" style="fill:#d4ab19;fill-opacity:1"/><path class="st1" d="M419.5 350.6c3.6 1.2 2.9 6.8 2.9 8.6.6-2.5 1.7-4.5 3-6.3-.8-2-1.1-4.3-3.5-5.1-1.8-.6-3.8-.1-5.2 1.1-1 .9-1.7 1.9-2.1 3.1.7-1.6 3.4-1.8 4.9-1.4z" id="path6" style="opacity:.2;fill:#231f20"/><path class="st1" d="M423.1 377.4c-4.9 0-5.8-2.3-6.6-4.9.4 4.2 2.7 7.8 7.5 7 2.3-.3 4.2-2 5.3-4s1.3-4.4 1.1-6.7c.3 3.8-3.5 8.6-7.3 8.6z" id="path8" style="opacity:.2;fill:#231f20"/><path class="st1" d="M440.5 351.3c-1-3-4.6-4.5-7.7-3.9-3 .6-5.5 2.9-7.2 5.4 2.9-2 4.7-2.5 6-2.8 2-.4 4.3-.4 6.1.7 2.8 1.7 2.4 5.7.1 7.8 2.2-1.7 3.5-4.6 2.7-7.2z" id="path10" style="opacity:.2;fill:#231f20"/></svg>