<svg xmlns="http://www.w3.org/2000/svg" viewBox="0 0 800 1200" style="enable-background:new 0 0 800 1200" xml:space="preserve">
    <style>
        .stm{fill:#bb55d0}.shdw{opacity:.30;fill:#231f20}
    </style>
    <path class="stm" d="M430.3 370.4c.5.5 1 .9 1.4 1.4.4.5.7.9 1.3 1.2 1 .7 2.3.9 3.4 1.3 7.5 2 14 6.8 21.4 8.9 2.4.7 4.9 1.1 7.3 1.2 2 .1 1.6 2.7 6 2.4-7.7-5.5-14.4-10.6-20.1-18.3-2.2-3-3.5-7-6.1-9.5-4.1-4-11.8-4.5-15.3.5-3.1 4.3-2.3 7.9.7 10.9z"/>
    <path class="shdw" d="M430.1 370.5c1.7 1.8 4 3.1 6.2 3.7 7.5 2 14 6.8 21.4 8.9 2.4.7 4.9 1.1 7.3 1.2 2 .1 1.6 2.7 6 2.4-.9.1-3.2-2.4-4-3-1.2-.8-2.4-1-3.7-1.5-3-.9-6-2.1-8.3-4.3-2-1.9-3.6-4.5-6.3-5.1-3-.6-6.1 1.8-8.7-.3-5.6-4.7-5.2-13 .4-12.7 3.4.2 5.7 5.6 9.1 6.3-4.4-8.2-4.7-9.1-9.1-10.3-6.1-1.6-13.5 2.3-12.9 9.3.3 2.2 1.3 4 2.6 5.4z" style="opacity:.25;fill:#231f20"/>
</svg>
