<svg version="1.1" id="Layer_1" xmlns="http://www.w3.org/2000/svg" x="0" y="0" viewBox="0 0 800 1200" style="enable-background:new 0 0 800 1200" xml:space="preserve">
    <style>
        .st1{fill:#f537b7}
    </style>
    <circle cx="173" cy="176.1" r="64" style="fill-rule:evenodd;clip-rule:evenodd;fill:#f9f9f9"/>
    <path class="st1" d="M200 166.9v35.7l-7.5-7.1-19.5-18.4-19.2 18.4-7.5 7.1v-35.7H133c-.6 2.9-1 6-1 9.1 0 22.6 18.4 40.9 40.9 40.9S214 198.6 214 176c0-3.1-.3-6.2-1-9.1h-13z"/>
    <path class="st1" d="M221 156c-11.2-26.5-41.8-38.8-68.2-27.8S114 170 125.2 196.3s41.8 38.8 68.1 27.6c12.5-5.2 22.4-15.1 27.6-27.6 5.4-12.8 5.4-27.4.1-40.3zm-48-25.3c18 0 34.4 10.7 41.8 27.3h-23.7v23.9l-14.8-14-3.2-3.1-3.1 2.9-14.8 14.1V158h-23.9c7.3-16.6 23.7-27.3 41.7-27.3zm0 90.8c-25.2 0-45.5-20.3-45.5-45.5 0-4.5.6-9.3 2.1-13.6h21.1v29.9l22.4-21.1 22.3 21.1.2-29.9h21c7.5 24-5.8 49.6-29.9 57-4.6 1.4-9.1 2.1-13.7 2.1z"/>
</svg>
